<svg xmlns="http://www.w3.org/2000/svg" version="1.1" xmlns:xlink="http://www.w3.org/1999/xlink" xmlns:svgjs="http://svgjs.dev/svgjs" width="1440" height="560" preserveAspectRatio="none" viewBox="0 0 1440 560"><g mask="url(&quot;#SvgjsMask1000&quot;)" fill="none"><rect width="1440" height="560" x="0" y="0" fill="#1e3266"></rect><path d="M1536 560L0 560 L0 339.38Q66.95 286.33, 120 353.28Q149.87 263.14, 240 293.01Q281.33 262.34, 312 303.66Q356.83 276.5, 384 321.33Q449.13 266.45, 504 331.58Q548.04 303.63, 576 347.67Q620.05 271.72, 696 315.77Q763.18 262.94, 816 330.12Q851.89 246.01, 936 281.91Q1001.44 227.35, 1056 292.79Q1098.96 263.75, 1128 306.72Q1176.69 283.42, 1200 332.11Q1217.3 277.4, 1272 294.7Q1313.99 264.69, 1344 306.67Q1405.55 296.22, 1416 357.77Q1483.32 305.08, 1536 372.4z" fill="#182f5d"></path><path d="M1464 560L0 560 L0 440.86Q28.07 348.94, 120 377.01Q145.23 330.24, 192 355.46Q287.54 331, 312 426.54Q338.93 381.47, 384 408.4Q400.5 352.89, 456 369.39Q510.71 304.1, 576 358.8Q646.46 357.26, 648 427.72Q672.44 380.16, 720 404.6Q797.18 361.79, 840 438.97Q844.02 370.99, 912 375.01Q937.08 328.09, 984 353.16Q1036.2 333.36, 1056 385.56Q1112.88 370.44, 1128 427.31Q1171.01 398.32, 1200 441.34Q1206.59 375.93, 1272 382.52Q1339.05 329.57, 1392 396.62Q1410.34 342.96, 1464 361.3z" fill="#25467d"></path><path d="M1560 560L0 560 L0 440.48Q37.35 405.83, 72 443.18Q139.49 390.67, 192 458.16Q281.66 427.82, 312 517.47Q356.63 442.1, 432 486.72Q500.03 434.75, 552 502.79Q572.71 403.5, 672 424.21Q740.53 372.74, 792 441.27Q861.84 439.11, 864 508.95Q877.79 450.74, 936 464.52Q977.35 433.87, 1008 475.21Q1088.91 436.13, 1128 517.04Q1174.44 443.48, 1248 489.92Q1313.74 435.67, 1368 501.41Q1389.44 450.86, 1440 472.3Q1474.78 387.08, 1560 421.86z" fill="#356cb1"></path><path d="M1512 560L0 560 L0 547.7Q46.98 474.68, 120 521.66Q164.33 445.99, 240 490.32Q339.06 469.38, 360 568.43Q392.75 481.18, 480 513.93Q528.54 490.47, 552 539.02Q603.37 518.39, 624 569.76Q662.52 488.28, 744 526.81Q830.81 493.62, 864 580.42Q878.67 523.09, 936 537.76Q1011.69 493.45, 1056 569.15Q1067.97 509.12, 1128 521.08Q1155.09 476.17, 1200 503.26Q1252.59 483.85, 1272 536.43Q1337.8 482.23, 1392 548.04Q1432.21 468.25, 1512 508.46z" fill="white"></path></g><defs><mask id="SvgjsMask1000"><rect width="1440" height="560" fill="#ffffff"></rect></mask></defs></svg>