<?xml version='1.0' encoding='utf-8'?>
<svg xmlns="http://www.w3.org/2000/svg" fill="none" viewBox="0 0 1200 800" width="1200" height="800"><defs><filter id="dropShadow_DHye-2XO" color-interpolation-filters="sRGB" filterUnits="userSpaceOnUse" width="633" height="571" x="-4" y="-4">
        <feFlood flood-opacity="0" result="BackgroundImageFix" />
        <feColorMatrix in="SourceAlpha" result="hardAlpha" type="matrix" values="0 0 0 0 0 0 0 0 0 0 0 0 0 0 0 0 0 0 127 0" />
        <feOffset dx="1" dy="1" />
        <feGaussianBlur stdDeviation="0" />
        <feColorMatrix type="matrix" values="0 0 0 0 0 0 0 0 0 0 0 0 0 0 0 0 0 0 0.75 0" />
        <feBlend mode="normal" in2="BackgroundImageFix" result="effect_dropShadow" />
        <feBlend mode="normal" in="SourceGraphic" in2="effect_dropShadow" result="shape" />
      </filter><clipPath id="assetClipPath_LiUlsljL"><path d="m0 0 h 1295.401 v 1166.029 h -1295.401 v -1166.029 z" id="path_T_e9t2w_" fill="#ffffff" /></clipPath></defs><g transform="translate(289 120)" data-asset-index="0" filter="url(#dropShadow_DHye-2XO)"><g clip-path="url(#assetClipPath_LiUlsljL)" transform="scale(0.48016019749868954 0.4802624977594897)" data-asset-index="0"><g id="airplane">
    <g id="VcokleBoj7JTqEe-9UuhM">
      <g id="xGJxE_QVCLYVOgAr2Ic7s">
        <path d="M480.305,25.747c7.204-.312,42.538,48.023,40.388,55.248-2.15,7.225-190.313,141.602-212.434,112.91-22.121-28.692,164.842-167.846,172.046-168.158Z" fill="#E4E6FF" id="xIXziF5ekWe6Go3fbmwQj" />
        <path d="M319.009,199.904c-5.748,0-9.881-1.597-12.333-4.778-3.158-4.096-2.954-10.055.606-17.71,12.196-26.219,62.754-70.206,91.806-94.093,34.976-28.757,76.677-59.378,81.131-59.574h0c3.598-.155,10.545,6.364,20.694,19.377.24.308,23.958,30.84,21.697,38.439-1.408,4.73-43.437,34.952-78.653,57.794-30.65,19.881-86.616,54.077-117.066,59.738-2.896.538-5.524.807-7.882.807ZM480.461,27.759c-4.688,1.573-43.273,29.105-83.315,62.358-50.538,41.968-81.665,74.809-87.649,92.472-1.506,4.446-1.39,7.843.347,10.095,1.88,2.438,5.557,3.506,10.948,3.173,19.617-1.213,60.413-21.07,114.873-55.913,44.116-28.226,80.45-55.67,83.131-59.624.275-2.131-4.339-11.941-15.734-27.676-11.911-16.446-20.428-24.481-22.6-24.885ZM480.585,27.721s0,0,0,0ZM480.305,25.747h.01-.01Z" fill="#000D39" id="utHp8QpS0PlsjDZr_gOLc" />
      </g>
      <g id="x3sBhcruZnFJDhMyy7tE">
        <path d="M687.888,111.673c7.204-.312,42.538,48.023,40.388,55.248-2.15,7.225-237.03,175.754-259.152,147.062-22.121-28.692,211.56-201.998,218.764-202.31Z" fill="#E4E6FF" id="U8ir1dCtNHhfi4I1tjp3-" />
        <path d="M477.976,319.273c-4.898,0-8.338-1.349-10.436-4.069-2.696-3.497-2.496-8.638.594-15.282,12.44-26.746,69.808-76.606,115.743-113.724,44.889-36.273,99.28-76.322,103.925-76.523l.086,1.998-.086-1.998c3.606-.155,10.545,6.364,20.694,19.377.24.308,23.958,30.84,21.697,38.439-.24.807-.971,3.263-31.469,25.61-12.118,8.879-37.348,27.01-70.179,48.681-39.446,26.037-110.543,70.631-143.517,76.759-2.62.487-4.968.731-7.052.731ZM688.067,113.689c-5.09,1.94-53.755,36.58-106.96,79.906-65.35,53.216-104.654,92.754-110.67,111.333-1.132,3.496-1.041,6.132.271,7.834,1.419,1.841,4.271,2.674,8.476,2.478,20.583-.964,70.325-26.583,140.064-72.137,56.073-36.628,103.801-72.363,107.133-76.885.232-2.187-4.391-11.981-15.738-27.648-11.868-16.387-20.367-24.423-22.576-24.88ZM726.464,166.095s0,0,0,0ZM688.218,113.637s0,0,0,0Z" fill="#000D39" id="w4Cv2o5oJwOlWYXZDlr-w" />
      </g>
      <g id="MCkW7rXIdNAk3W_A2mpXf">
        <path d="M1082.953,851.821c2.483-6.77-32.851-55.104-40.388-55.248s-192.673,138.373-172.046,168.158c20.627,29.785,209.951-106.14,212.434-112.91Z" fill="#E4E6FF" id="fMPhBHHTjqXoGXbCTa0sa" />
        <path d="M881.233,970.986c-5.855,0-10.001-1.713-12.358-5.116-3.225-4.656-2.434-11.542,2.349-20.466,14.632-27.297,64.199-70.248,92.443-93.421,32.402-26.585,73.875-57.409,78.913-57.409.008,0,.015,0,.023,0,7.927.151,29.822,32.014,30.042,32.336,9.321,13.62,13.42,22.234,12.186,25.601-1.534,4.182-43.366,34.627-81.383,59.229-31.575,20.434-88.829,55.261-117.514,58.927-1.672.214-3.24.32-4.701.32ZM1042.631,798.587c-4.589,1.361-41.76,27.652-82.036,61.12-49.726,41.319-81.025,74.167-88.133,92.491-1.951,5.029-2.051,8.863-.298,11.394,1.62,2.338,4.831,3.48,9.514,3.394,18.646-.343,59.384-20.038,114.708-55.458,43.835-28.064,81.777-56.476,84.698-60.466.274-2.192-4.797-12.745-16.853-29.084-11.529-15.624-19.474-22.998-21.6-23.391ZM1042.745,798.557h0Z" fill="#000D39" id="Ur4zq2RAoHe97RCMXGFi1" />
      </g>
      <g id="qE9iYhuLqPe5oHLt3cPNT">
        <path d="M1064.066,627.953c2.483-6.77-32.851-55.104-40.388-55.248s-239.391,172.525-218.764,202.31c20.627,29.785,256.669-140.292,259.152-147.062Z" fill="#E4E6FF" id="PUL2Eeua13n1m9vbyIDC9" />
        <path d="M813.885,780.506c-5.048,0-8.609-1.457-10.614-4.353-2.788-4.025-2.093-9.807,2.125-17.677,15.845-29.559,79.91-83.773,116.688-113.459,30.611-24.708,55.543-43.247,67.68-52.099,30.555-22.284,33.103-22.23,33.952-22.214,7.928.151,29.825,32.019,30.045,32.341,9.317,13.617,13.416,22.229,12.182,25.596h0c-1.601,4.365-56.266,44.039-104.45,75.805-49.305,32.506-114.222,72.039-143.482,75.778-1.471.188-2.847.282-4.127.282ZM1023.772,574.724c-5.33,1.81-53.857,36.442-105.766,78.752-64.568,52.628-104.072,92.251-111.236,111.571-1.464,3.947-1.535,6.917-.211,8.828,1.224,1.767,3.71,2.656,7.382,2.635,19.528-.096,69.128-25.549,139.665-71.67,57.427-37.55,105.201-73.41,108.594-77.671.235-2.243-4.842-12.778-16.852-29.055-11.481-15.56-19.409-22.94-21.576-23.391ZM1062.188,627.264h0s0,0,0,0h0ZM1023.915,574.681s0,0,0,0Z" fill="#000D39" id="i9X98wACsKdSE4-mNWDMz" />
      </g>
    </g>
    <g id="E_eRrnIxiAubYj_fAUpr3">
      <path d="M852.4,271.92S295.818.579,262.658,2.006c-23.912,1.029-111.984,36.607-111.984,36.607l380.398,291.37,92.296,117.538,229.032-175.6Z" fill="#F9FAFF" id="NuWz4_liFjx_Qb4ECHJA" />
      <path d="M150.673,38.61l380.403,291.374,92.289,117.535,72.74-43.324-10.068-10.841s-88.786-93.155-108.81-109.905c-17.777-14.863-319.882-214.905-387.703-259.777-21.442,7.896-38.852,14.937-38.852,14.937Z" fill="#E4E6FF" id="ILwa5zW-Mzjt8Imwem4F" />
      <path d="M623.37,449.52c-.593,0-1.18-.263-1.574-.765l-92.14-117.339L149.458,40.2c-.57-.437-.862-1.145-.766-1.857.097-.711.567-1.317,1.233-1.586C153.534,35.3,238.592,1.039,262.572.007c33.25-1.431,567.959,259.027,590.704,270.115.623.304,1.044.908,1.114,1.598.069.689-.224,1.366-.773,1.787l-229.032,175.6c-.363.278-.791.413-1.215.413ZM154.684,39.164l377.605,289.23c.133.102.253.221.356.353l91.075,115.983,224.896-172.429C655.465,178.173,288.426,2.898,262.744,4.004c-20.717.891-91.929,28.753-108.061,35.16Z" fill="#000D39" id="I45SOkkw6JknfWr4ShPMR" />
    </g>
    <g id="qapiNm3cGh_IMeKoqW4ms">
      <path d="M299.963,711.281s-205.843-89.038-221.02-83.087c-15.177,5.951-76.943,47.998-76.943,47.998l237.723,160.545,60.24-125.455Z" fill="#F9FAFF" id="lyoKfx-LZmhEyeBDjC14C" />
      <path d="M2.001,676.186l207.584,140.202,30.225-41.717-216.312-112.862c-12.232,8.075-21.498,14.378-21.498,14.378Z" fill="#E4E6FF" id="g8j3f3-4fL8C_iu86JGhb" />
      <path d="M239.723,838.736c-.395,0-.785-.117-1.119-.343L.881,677.849c-.55-.371-.879-.991-.881-1.654-.001-.663.326-1.284.875-1.657,2.53-1.722,62.126-42.242,77.338-48.207,2.527-.992,10.224-4.01,117.68,39.319,52.771,21.279,104.35,43.572,104.865,43.794.5.216.889.626,1.08,1.136s.165,1.075-.071,1.565l-60.24,125.455c-.251.524-.719.913-1.28,1.065-.172.047-.348.07-.523.07ZM5.57,676.189l233.353,157.593,58.335-121.489c-9.816-4.227-55.872-23.984-102.868-42.935-95.645-38.567-112.088-40.333-114.718-39.302-13.097,5.135-62.503,38.296-74.103,46.133Z" fill="#000D39" id="INxL4465nNMZhAatZc02T" />
    </g>
    <g id="ZCt0MdM8tGpIhNQUYC9H">
      <path d="M377.599,817.482s22.38,223.156,12.105,235.811-69.082,58.751-69.082,58.751l-80.842-275.23,137.819-19.332Z" fill="#F9FAFF" id="Rx8bHKuthDjGLw0p5ly71" />
      <path d="M320.628,1112.045l-70.603-240.339,48.921-16.142,41.905,240.359c-11.406,9.205-20.223,16.121-20.223,16.121Z" fill="#E4E6FF" id="WjiMY8jw3g6sy3RDv_R34" />
      <path d="M320.622,1114.044c-.205,0-.411-.031-.61-.095-.631-.202-1.122-.705-1.309-1.341l-80.842-275.23c-.164-.558-.077-1.159.238-1.648s.827-.816,1.403-.896l137.819-19.332c.541-.076,1.085.072,1.513.408.428.336.7.832.755,1.373.056.558,5.646,56.47,9.91,113.21,8.681,115.535,3.47,121.953,1.757,124.062-10.299,12.684-66.992,57.176-69.4,59.064-.357.28-.792.426-1.234.426ZM242.352,838.473l79.355,270.17c10.988-8.674,57.576-45.689,66.443-56.611,1.78-2.193,5.087-18.395-2.64-121.235-3.796-50.531-8.647-100.41-9.696-111.046l-133.462,18.721Z" fill="#000D39" id="wz_G0AdIogj13xypBci7e" />
    </g>
    <g id="iY9i4BtKpesQPc-6naag9">
      <path d="M964.01,424.594s89.662,612.675,78.241,643.838c-8.236,22.472-68.861,95.597-68.861,95.597l-162.207-450.875-83.99-123.61,236.817-164.95Z" fill="#F9FAFF" id="zgqFzunMYHqoDU64ZvTO" />
      <path d="M973.392,1164.031l-162.209-450.881-83.99-123.602,64.144-56.776,6.483,13.494s61.822,112.866,71.707,137.029c8.768,21.449,107.709,370.009,129.887,448.249-14.03,18.035-26.022,32.488-26.022,32.488Z" fill="#E4E6FF" id="aWo4HdPJpr7SqicRJCr3g" />
      <path d="M973.39,1166.029c-.114,0-.23-.01-.345-.03-.707-.124-1.293-.617-1.537-1.293l-162.121-450.637-83.849-123.401c-.616-.906-.388-2.139.511-2.765l236.817-164.95c.569-.396,1.303-.469,1.938-.194.636.275,1.084.86,1.185,1.546,3.664,25.037,89.604,613.537,78.14,644.816-8.26,22.536-66.715,93.189-69.199,96.185-.383.463-.95.724-1.54.724ZM729.958,590.055l82.88,121.974c.094.139.171.289.228.447l161.015,447.564c11.001-13.427,59.157-72.827,66.292-92.297,8.852-24.152-46.793-427.053-77.874-639.66l-232.541,161.972Z" fill="#000D39" id="WNcHSBqKAQjkVYJYwXKXA" />
    </g>
    <g id="AFgNmNg2u9WDvtiPkvyo">
      <path d="M1217.295,239.563c34.113-24.95,57.644-72.054,72.59-112.62,13.883-37.68-15.166-77.371-55.28-75.526-43.16,1.985-95.137,10.17-129.24,35.113-67.643,49.474-725.628,528.671-808.843,617.291-140.751,153.318-139.458,153.201-121.158,180.107l.245.335c20.098,25.592,20.688,25.475,208.35-60.895,109.667-52.455,765.693-534.33,833.336-583.804Z" fill="#F9FAFF" id="aKpVZRp7iGi_G6QnBIGpa" />
      <path d="M198.66,901.027c-12.43,0-17.517-6.48-24.623-15.53l-.63-.892c-9.278-13.636-14.389-21.147,1.484-44.819,15.287-22.798,51.715-62.765,120.159-137.319,69.097-73.585,528.16-412.329,795.654-607.702,5.739-4.192,10.274-7.504,13.482-9.85,35.577-26.021,90.51-33.666,130.329-35.497,19.496-.897,38.048,7.983,49.593,23.755,11.546,15.774,14.408,36.133,7.656,54.46-13.792,37.432-37.701,87.516-73.287,113.543l-1.181-1.614,1.181,1.614c-3.205,2.344-7.729,5.658-13.455,9.851-267.239,195.732-729.153,530.595-820.199,574.143-93.771,43.158-140.825,64.814-167.313,72.549-7.827,2.286-13.917,3.307-18.849,3.307ZM1237.208,53.356c-.834,0-1.671.019-2.511.058-39.269,1.806-93.378,9.297-128.151,34.73-3.208,2.346-7.745,5.66-13.484,9.852-267.381,195.291-726.222,533.862-795.082,607.193-68.293,74.391-104.643,114.269-119.768,136.825-14.368,21.427-10.335,27.354-1.499,40.341l.51.726q19.172,24.411,205.899-61.531c90.726-43.395,552.408-378.099,819.535-573.749,5.726-4.194,10.251-7.508,13.457-9.853,34.78-25.438,58.293-74.782,71.895-111.698,6.288-17.066,3.622-36.025-7.13-50.715-10.254-14.009-26.435-22.18-43.67-22.18Z" fill="#000D39" id="VRTtAA1eue4YzOxhVSev1" />
    </g>
    <g id="Umf-Xzos250zP5i1FH-Gf">
      <path d="M372.407,771.238l.014-.031c9.538-20.627-7.374-43.682-29.913-40.779h0c-8.461,1.09-16.42,4.623-22.902,10.168l-255.676,218.668,6.001,8.204,285.797-177.374c7.283-4.52,13.082-11.076,16.68-18.856Z" fill="#F9FAFF" id="AIAdfUKeQ0s25ZJ3U6YL_" />
      <path d="M69.932,969.468c-.619,0-1.226-.287-1.616-.82l-6-8.204c-.617-.844-.48-2.021.314-2.701l255.676-218.668c6.796-5.813,15.077-9.489,23.947-10.631,11.314-1.458,22.104,3.165,28.854,12.367,6.75,9.201,7.919,20.878,3.13,31.236l-1.83-.808,1.815.839c-3.772,8.158-9.803,14.976-17.44,19.716l-285.797,177.373c-.328.203-.692.301-1.053.301ZM66.638,959.579l3.812,5.212,284.222-176.396c6.971-4.326,12.476-10.549,15.919-17.996.002-.005.005-.011.008-.016l.015-.031c4.162-9,3.143-19.165-2.733-27.175-5.875-8.01-15.265-12.034-25.117-10.765-8.096,1.043-15.655,4.398-21.858,9.704l-254.267,217.463Z" fill="#000D39" id="ojvm8xDRcMJFWNjNUyZWb" />
    </g>
    <g id="CduQMyjzNU4xLedohXC9Z">
      <path d="M1249.941,98.236l.029-.022c-.025-.025-.051-.048-.076-.073-.016-.031-.03-.063-.047-.094l-.029.022c-23.718-31.997-93.511-10.762-93.511-10.762l-3.418,22.032c39.267-8.837,57.21,5.445,63.149,13.565,5.817,7.953,14.114,29.547-6.205,64.291l22.032,3.418s42.239-58.907,18.075-92.377Z" fill="#000D39" id="vdcc6ilJec8_O8xrnfGc" />
      <path d="M1199.503,118.378c-.215,0-.433-.035-.648-.108-1.045-.358-1.602-1.495-1.244-2.54l14.448-42.194c.357-1.045,1.494-1.602,2.54-1.244,1.045.358,1.602,1.495,1.244,2.54l-14.448,42.194c-.284.83-1.061,1.353-1.892,1.353Z" fill="#F9FAFF" id="vkLgMzK1J4v-lxfO-l9_2" />
      <path d="M1217.349,142.898c-1.084,0-1.975-.867-1.999-1.956-.024-1.104.851-2.019,1.956-2.044l43.273-.956c1.062-.025,2.019.851,2.043,1.955.024,1.104-.851,2.019-1.956,2.044l-43.273.956c-.015,0-.03,0-.045,0Z" fill="#F9FAFF" id="yHrQHS_vwauTyi0C3uWsv" />
    </g>
  </g></g></g></svg>