<svg xmlns="http://www.w3.org/2000/svg" version="1.1" xmlns:xlink="http://www.w3.org/1999/xlink" xmlns:svgjs="http://svgjs.dev/svgjs" width="1440" height="560" preserveAspectRatio="none" viewBox="0 0 1440 560"><g mask="url(&quot;#SvgjsMask1006&quot;)" fill="none"><path d="M668.64-109.16C526.44-87.01 452 253.57 222.82 255.04-6.36 256.51-105.33 105.88-223 103.84" stroke="#002d4b" stroke-width="2"></path><path d="M771.1-73.1C606.1-36.15 534.52 398.43 287.33 399.53 40.13 400.63-58.37 139.56-196.45 130.73" stroke="#002d4b" stroke-width="2"></path><path d="M665.68-89.88C559.23-23.84 616.77 345.59 424.78 349.51 232.79 353.43 71.46 173.18-57.02 170.31" stroke="#002d4b" stroke-width="2"></path><path d="M719.35-7.29C618.03 19.11 674.65 283.88 431.7 297.13 188.74 310.38 4.75 441.61-143.61 442.73" stroke="#002d4b" stroke-width="2"></path><path d="M964.01-67.81C805.21-58.12 688.31 236.26 405.28 236.85 122.26 237.44-10.41 114.38-153.44 113.65" stroke="#002d4b" stroke-width="2"></path></g><defs><mask id="SvgjsMask1006"><rect width="1440" height="560" fill="#ffffff"></rect></mask></defs></svg>
