<svg xmlns="http://www.w3.org/2000/svg" version="1.1" xmlns:xlink="http://www.w3.org/1999/xlink" xmlns:svgjs="http://svgjs.dev/svgjs" width="1440" height="560" preserveAspectRatio="none" viewBox="0 0 1440 560"><g mask="url(&quot;#SvgjsMask1001&quot;)" fill="none"><rect width="1440" height="560" x="0" y="0" fill="rgba(0, 45, 75, 1)"></rect><path d="M1560 560L0 560 L0 295.48Q80.57 256.05, 120 336.62Q168.32 312.94, 192 361.26Q214.13 263.38, 312 285.51Q353.2 254.71, 384 295.91Q458.83 250.75, 504 325.58Q587.38 288.96, 624 372.34Q675.14 303.48, 744 354.62Q747.48 286.1, 816 289.57Q881.36 234.92, 936 300.28Q1007.07 251.35, 1056 322.41Q1119.38 313.8, 1128 377.18Q1149.71 278.89, 1248 300.6Q1300.99 233.59, 1368 286.57Q1430.8 277.37, 1440 340.17Q1488.6 268.76, 1560 317.36z" fill="#182f5d"></path><path d="M1512 560L0 560 L0 433.07Q28.9 341.97, 120 370.86Q165.08 343.94, 192 389.03Q257.93 334.95, 312 400.88Q353 321.88, 432 362.87Q525.72 336.59, 552 430.3Q567.23 373.52, 624 388.75Q641.39 334.14, 696 351.53Q737.43 320.96, 768 362.39Q823.66 346.05, 840 401.71Q864.8 354.51, 912 379.31Q935.73 331.04, 984 354.77Q1064.66 315.43, 1104 396.09Q1155.58 375.66, 1176 427.24Q1218.66 397.9, 1248 440.56Q1276.86 349.41, 1368 378.27Q1410.61 348.88, 1440 391.48Q1503.84 383.32, 1512 447.16z" fill="#25467d"></path><path d="M1488 560L0 560 L0 499.98Q-0.98 427, 72 426.02Q123.9 405.92, 144 457.83Q213.87 407.69, 264 477.56Q304.18 397.74, 384 437.92Q428.92 410.84, 456 455.76Q477.76 405.52, 528 427.28Q572.54 399.82, 600 444.37Q642.72 415.09, 672 457.81Q758.68 424.49, 792 511.17Q822.44 469.62, 864 500.06Q899.64 415.7, 984 451.34Q1056.95 404.29, 1104 477.25Q1132.1 433.35, 1176 461.45Q1225.74 391.19, 1296 440.92Q1388.58 413.5, 1416 506.07Q1441.21 459.28, 1488 484.5z" fill="#356cb1"></path><path d="M1488 560L0 560 L0 520.61Q35.22 483.83, 72 519.04Q165.75 492.79, 192 586.55Q238.49 513.03, 312 559.52Q365.76 493.28, 432 547.05Q504 499.05, 552 571.06Q559.36 506.41, 624 513.77Q689.1 458.87, 744 523.96Q787.08 495.04, 816 538.11Q857.32 507.43, 888 548.76Q905.21 493.97, 960 511.18Q987.8 466.98, 1032 494.78Q1107.89 450.67, 1152 526.56Q1206.25 508.81, 1224 563.06Q1276.4 495.46, 1344 547.87Q1371.47 503.34, 1416 530.8Q1466.07 508.87, 1488 558.93z" fill="white"></path></g><defs><mask id="SvgjsMask1001"><rect width="1440" height="560" fill="#ffffff"></rect></mask></defs></svg>