<svg xmlns="http://www.w3.org/2000/svg" version="1.1" xmlns:xlink="http://www.w3.org/1999/xlink" xmlns:svgjs="http://svgjs.dev/svgjs" width="1440" height="560" preserveAspectRatio="none" viewBox="0 0 1440 560"><g mask="url(&quot;#SvgjsMask1008&quot;)" fill="none"><rect width="1440" height="560" x="0" y="0" fill="#1e3266"></rect><path d="M1464 560L0 560 L0 340.71Q38.95 307.66, 72 346.61Q120.81 275.42, 192 324.23Q206.04 266.27, 264 280.32Q330.37 226.69, 384 293.06Q441.69 278.75, 456 336.44Q511.55 319.99, 528 375.54Q534.69 310.23, 600 316.92Q617.59 262.51, 672 280.11Q743.29 231.4, 792 302.69Q863.64 254.34, 912 325.98Q931.1 273.08, 984 292.18Q1067.25 255.43, 1104 338.68Q1174.79 289.47, 1224 360.26Q1244.59 260.85, 1344 281.43Q1412.37 229.8, 1464 298.17z" fill="rgba(4, 35, 95, 1)"></path><path d="M1560 560L0 560 L0 378.56Q28.02 334.58, 72 362.6Q123.31 341.91, 144 393.22Q197.09 326.31, 264 379.4Q344.48 339.88, 384 420.36Q410.38 326.74, 504 353.11Q548.24 325.35, 576 369.58Q639.32 360.9, 648 424.23Q648.33 352.56, 720 352.88Q788.83 349.71, 792 418.54Q836.47 343.01, 912 387.48Q959 314.48, 1032 361.47Q1114.77 324.24, 1152 407Q1176.99 360, 1224 384.99Q1265.33 354.31, 1296 395.64Q1318.59 346.23, 1368 368.81Q1422.63 351.44, 1440 406.06Q1494.5 340.56, 1560 395.06z" fill="#25467d"></path><path d="M1464 560L0 560 L0 503.57Q32.75 464.32, 72 497.08Q69.6 422.68, 144 420.28Q227.33 383.61, 264 466.93Q315.38 446.31, 336 497.69Q345.12 434.81, 408 443.92Q433.31 397.24, 480 422.55Q566.32 388.87, 600 475.19Q642.51 397.71, 720 440.22Q764.83 413.05, 792 457.87Q881.48 427.35, 912 516.82Q952.74 437.56, 1032 478.3Q1055.13 429.43, 1104 452.55Q1183.98 412.53, 1224 492.51Q1255.57 404.08, 1344 435.65Q1412.42 384.07, 1464 452.49z" fill="#356cb1"></path><path d="M1464 560L0 560 L0 532.08Q33.15 493.23, 72 526.38Q99.4 481.78, 144 509.19Q196.62 489.81, 216 542.43Q295.16 501.59, 336 580.74Q345.1 517.84, 408 526.93Q481.59 480.51, 528 554.1Q594.19 500.29, 648 566.47Q669.86 468.33, 768 490.19Q835.83 438.01, 888 505.84Q980.43 478.27, 1008 570.71Q1050.02 540.73, 1080 582.75Q1103.74 486.49, 1200 510.23Q1268.11 458.34, 1320 526.44Q1367.76 502.2, 1392 549.96Q1439.13 525.1, 1464 572.23z" fill="rgba(255, 255, 255, 1)"></path></g><defs><mask id="SvgjsMask1008"><rect width="1440" height="560" fill="#ffffff"></rect></mask></defs></svg>