<svg xmlns="http://www.w3.org/2000/svg" xmlns:xlink="http://www.w3.org/1999/xlink" viewBox="0,0,255.99057,255.99057" width="48px" height="48px" fill-rule="nonzero"><defs><linearGradient x1="17.1583" y1="8.2038" x2="19.27958" y2="10.32516" gradientUnits="userSpaceOnUse" id="color-1"><stop offset="0" stop-color="#999999"></stop><stop offset="0.084" stop-color="#b6b6b6"></stop><stop offset="0.179" stop-color="#cecece"></stop><stop offset="0.278" stop-color="#e0e0e0"></stop><stop offset="0.384" stop-color="#ebebeb"></stop><stop offset="0.508" stop-color="#eeeeee"></stop><stop offset="0.625" stop-color="#eaeaea"></stop><stop offset="0.73" stop-color="#e0e0e0"></stop><stop offset="0.83" stop-color="#cdcdcd"></stop><stop offset="0.926" stop-color="#b4b4b4"></stop><stop offset="1" stop-color="#9b9b9b"></stop></linearGradient><linearGradient x1="19.29026" y1="6.07191" x2="21.41155" y2="8.19327" gradientUnits="userSpaceOnUse" id="color-2"><stop offset="0" stop-color="#616161"></stop><stop offset="0.161" stop-color="#797979"></stop><stop offset="0.379" stop-color="#949494"></stop><stop offset="0.508" stop-color="#9e9e9e"></stop><stop offset="0.654" stop-color="#909090"></stop><stop offset="0.93" stop-color="#6b6b6b"></stop><stop offset="1" stop-color="#616161"></stop></linearGradient><linearGradient x1="23.52222" y1="10.32524" x2="25.64351" y2="12.44659" gradientUnits="userSpaceOnUse" id="color-3"><stop offset="0" stop-color="#999999"></stop><stop offset="0.084" stop-color="#b6b6b6"></stop><stop offset="0.179" stop-color="#cecece"></stop><stop offset="0.278" stop-color="#e0e0e0"></stop><stop offset="0.384" stop-color="#ebebeb"></stop><stop offset="0.508" stop-color="#eeeeee"></stop><stop offset="0.625" stop-color="#eaeaea"></stop><stop offset="0.73" stop-color="#e0e0e0"></stop><stop offset="0.83" stop-color="#cdcdcd"></stop><stop offset="0.926" stop-color="#b4b4b4"></stop><stop offset="1" stop-color="#9b9b9b"></stop></linearGradient><linearGradient x1="25.65419" y1="8.19335" x2="27.77547" y2="10.3147" gradientUnits="userSpaceOnUse" id="color-4"><stop offset="0" stop-color="#616161"></stop><stop offset="0.161" stop-color="#797979"></stop><stop offset="0.379" stop-color="#949494"></stop><stop offset="0.508" stop-color="#9e9e9e"></stop><stop offset="0.654" stop-color="#909090"></stop><stop offset="0.93" stop-color="#6b6b6b"></stop><stop offset="1" stop-color="#616161"></stop></linearGradient><linearGradient x1="28.66409" y1="22.51726" x2="12.40092" y2="6.25352" gradientUnits="userSpaceOnUse" id="color-5"><stop offset="0" stop-color="#999999"></stop><stop offset="0.465" stop-color="#d0d0d0"></stop><stop offset="0.594" stop-color="#e0e0e0"></stop></linearGradient><linearGradient x1="20.67891" y1="12.19407" x2="30.61713" y2="22.13263" gradientUnits="userSpaceOnUse" id="color-6"><stop offset="0" stop-color="#0b71d9"></stop><stop offset="1" stop-color="#264774"></stop></linearGradient><linearGradient x1="37.66404" y1="28.71026" x2="39.78532" y2="30.83162" gradientUnits="userSpaceOnUse" id="color-7"><stop offset="0" stop-color="#999999"></stop><stop offset="0.084" stop-color="#b6b6b6"></stop><stop offset="0.179" stop-color="#cecece"></stop><stop offset="0.278" stop-color="#e0e0e0"></stop><stop offset="0.384" stop-color="#ebebeb"></stop><stop offset="0.508" stop-color="#eeeeee"></stop><stop offset="0.625" stop-color="#eaeaea"></stop><stop offset="0.73" stop-color="#e0e0e0"></stop><stop offset="0.83" stop-color="#cdcdcd"></stop><stop offset="0.926" stop-color="#b4b4b4"></stop><stop offset="1" stop-color="#9b9b9b"></stop></linearGradient><linearGradient x1="39.796" y1="26.57837" x2="41.91728" y2="28.69973" gradientUnits="userSpaceOnUse" id="color-8"><stop offset="0" stop-color="#616161"></stop><stop offset="0.161" stop-color="#797979"></stop><stop offset="0.379" stop-color="#949494"></stop><stop offset="0.508" stop-color="#9e9e9e"></stop><stop offset="0.654" stop-color="#909090"></stop><stop offset="0.93" stop-color="#6b6b6b"></stop><stop offset="1" stop-color="#616161"></stop></linearGradient><linearGradient x1="35.54283" y1="22.34626" x2="37.66411" y2="24.46762" gradientUnits="userSpaceOnUse" id="color-9"><stop offset="0" stop-color="#999999"></stop><stop offset="0.084" stop-color="#b6b6b6"></stop><stop offset="0.179" stop-color="#cecece"></stop><stop offset="0.278" stop-color="#e0e0e0"></stop><stop offset="0.384" stop-color="#ebebeb"></stop><stop offset="0.508" stop-color="#eeeeee"></stop><stop offset="0.625" stop-color="#eaeaea"></stop><stop offset="0.73" stop-color="#e0e0e0"></stop><stop offset="0.83" stop-color="#cdcdcd"></stop><stop offset="0.926" stop-color="#b4b4b4"></stop><stop offset="1" stop-color="#9b9b9b"></stop></linearGradient><linearGradient x1="37.67479" y1="20.21437" x2="39.79608" y2="22.33573" gradientUnits="userSpaceOnUse" id="color-10"><stop offset="0" stop-color="#616161"></stop><stop offset="0.161" stop-color="#797979"></stop><stop offset="0.379" stop-color="#949494"></stop><stop offset="0.508" stop-color="#9e9e9e"></stop><stop offset="0.654" stop-color="#909090"></stop><stop offset="0.93" stop-color="#6b6b6b"></stop><stop offset="1" stop-color="#616161"></stop></linearGradient><linearGradient x1="28.48237" y1="22.33553" x2="44.74554" y2="38.59927" gradientUnits="userSpaceOnUse" id="color-11"><stop offset="0" stop-color="#999999"></stop><stop offset="0.402" stop-color="#d0d0d0"></stop><stop offset="0.508" stop-color="#dfdfdf"></stop></linearGradient><linearGradient x1="34.71898" y1="26.23463" x2="30.47571" y2="21.9912" gradientUnits="userSpaceOnUse" id="color-12"><stop offset="0" stop-color="#0b71d9"></stop><stop offset="1" stop-color="#264774"></stop></linearGradient><linearGradient x1="12.69741" y1="34.27051" x2="15.70607" y2="39.22667" gradientUnits="userSpaceOnUse" id="color-13"><stop offset="0" stop-color="#999999"></stop><stop offset="0.465" stop-color="#d0d0d0"></stop><stop offset="0.594" stop-color="#e0e0e0"></stop></linearGradient><linearGradient x1="14.35627" y1="35.10068" x2="8.27096" y2="32.02608" gradientUnits="userSpaceOnUse" id="color-14"><stop offset="0" stop-color="#999999"></stop><stop offset="0.465" stop-color="#d0d0d0"></stop><stop offset="0.594" stop-color="#e0e0e0"></stop></linearGradient><linearGradient x1="11.20679" y1="36.78637" x2="11.18345" y2="36.77435" gradientUnits="userSpaceOnUse" id="color-15"><stop offset="0" stop-color="#0b71d9"></stop><stop offset="1" stop-color="#264774"></stop></linearGradient><linearGradient x1="8.15996" y1="31.6011" x2="14.52601" y2="33.27069" gradientUnits="userSpaceOnUse" id="color-16"><stop offset="0" stop-color="#0b71d9"></stop><stop offset="1" stop-color="#264774"></stop></linearGradient><linearGradient x1="16.38832" y1="39.82985" x2="14.71884" y2="33.46376" gradientUnits="userSpaceOnUse" id="color-17"><stop offset="0" stop-color="#0b71d9"></stop><stop offset="1" stop-color="#264774"></stop></linearGradient><linearGradient x1="24.59336" y1="17.73927" x2="30.25012" y2="23.39622" gradientUnits="userSpaceOnUse" id="color-18"><stop offset="0" stop-color="#999999"></stop><stop offset="0.084" stop-color="#b6b6b6"></stop><stop offset="0.179" stop-color="#cecece"></stop><stop offset="0.278" stop-color="#e0e0e0"></stop><stop offset="0.384" stop-color="#ebebeb"></stop><stop offset="0.508" stop-color="#eeeeee"></stop><stop offset="0.625" stop-color="#eaeaea"></stop><stop offset="0.73" stop-color="#e0e0e0"></stop><stop offset="0.83" stop-color="#cdcdcd"></stop><stop offset="0.926" stop-color="#b4b4b4"></stop><stop offset="1" stop-color="#9b9b9b"></stop></linearGradient><linearGradient x1="12.10415" y1="34.47061" x2="13.51834" y2="35.88485" gradientUnits="userSpaceOnUse" id="color-19"><stop offset="0" stop-color="#999999"></stop><stop offset="0.084" stop-color="#b6b6b6"></stop><stop offset="0.179" stop-color="#cecece"></stop><stop offset="0.278" stop-color="#e0e0e0"></stop><stop offset="0.384" stop-color="#ebebeb"></stop><stop offset="0.508" stop-color="#eeeeee"></stop><stop offset="0.625" stop-color="#eaeaea"></stop><stop offset="0.73" stop-color="#e0e0e0"></stop><stop offset="0.83" stop-color="#cdcdcd"></stop><stop offset="0.926" stop-color="#b4b4b4"></stop><stop offset="1" stop-color="#9b9b9b"></stop></linearGradient><linearGradient x1="42.33629" y1="5.69331" x2="40.0325" y2="7.95884" gradientUnits="userSpaceOnUse" id="color-20"><stop offset="0" stop-color="#315b8e"></stop><stop offset="1" stop-color="#5ba5ea"></stop></linearGradient><linearGradient x1="34.13947" y1="8.19349" x2="34.84656" y2="8.90061" gradientUnits="userSpaceOnUse" id="color-21"><stop offset="0" stop-color="#315b8e"></stop><stop offset="1" stop-color="#5ba5ea"></stop></linearGradient><linearGradient x1="32.72523" y1="9.60768" x2="33.43232" y2="10.3148" gradientUnits="userSpaceOnUse" id="color-22"><stop offset="0" stop-color="#315b8e"></stop><stop offset="1" stop-color="#5ba5ea"></stop></linearGradient><linearGradient x1="31.31099" y1="11.02187" x2="32.01809" y2="11.72899" gradientUnits="userSpaceOnUse" id="color-23"><stop offset="0" stop-color="#315b8e"></stop><stop offset="1" stop-color="#5ba5ea"></stop></linearGradient><linearGradient x1="29.89675" y1="12.43606" x2="30.60385" y2="13.14318" gradientUnits="userSpaceOnUse" id="color-24"><stop offset="0" stop-color="#315b8e"></stop><stop offset="1" stop-color="#5ba5ea"></stop></linearGradient><linearGradient x1="28.48252" y1="13.85025" x2="29.18961" y2="14.55737" gradientUnits="userSpaceOnUse" id="color-25"><stop offset="0" stop-color="#315b8e"></stop><stop offset="1" stop-color="#5ba5ea"></stop></linearGradient><linearGradient x1="27.06828" y1="15.26444" x2="27.77537" y2="15.97156" gradientUnits="userSpaceOnUse" id="color-26"><stop offset="0" stop-color="#315b8e"></stop><stop offset="1" stop-color="#5ba5ea"></stop></linearGradient><linearGradient x1="25.65404" y1="16.67863" x2="26.36113" y2="17.38575" gradientUnits="userSpaceOnUse" id="color-27"><stop offset="0" stop-color="#315b8e"></stop><stop offset="1" stop-color="#5ba5ea"></stop></linearGradient><linearGradient x1="24.2398" y1="18.09282" x2="24.94689" y2="18.79994" gradientUnits="userSpaceOnUse" id="color-28"><stop offset="0" stop-color="#315b8e"></stop><stop offset="1" stop-color="#5ba5ea"></stop></linearGradient><linearGradient x1="22.82556" y1="19.50701" x2="23.53266" y2="20.21412" gradientUnits="userSpaceOnUse" id="color-29"><stop offset="0" stop-color="#315b8e"></stop><stop offset="1" stop-color="#5ba5ea"></stop></linearGradient><linearGradient x1="21.41132" y1="20.92119" x2="22.11842" y2="21.62831" gradientUnits="userSpaceOnUse" id="color-30"><stop offset="0" stop-color="#315b8e"></stop><stop offset="1" stop-color="#5ba5ea"></stop></linearGradient><linearGradient x1="20.03173" y1="22.37003" x2="20.70418" y2="23.0425" gradientUnits="userSpaceOnUse" id="color-31"><stop offset="0" stop-color="#315b8e"></stop><stop offset="1" stop-color="#5ba5ea"></stop></linearGradient><linearGradient x1="39.7969" y1="13.85054" x2="39.08979" y2="13.14344" gradientUnits="userSpaceOnUse" id="color-32"><stop offset="0" stop-color="#315b8e"></stop><stop offset="1" stop-color="#5ba5ea"></stop></linearGradient><linearGradient x1="38.38268" y1="15.26476" x2="37.67558" y2="14.55765" gradientUnits="userSpaceOnUse" id="color-33"><stop offset="0" stop-color="#315b8e"></stop><stop offset="1" stop-color="#5ba5ea"></stop></linearGradient><linearGradient x1="36.96847" y1="16.67897" x2="36.26136" y2="15.97186" gradientUnits="userSpaceOnUse" id="color-34"><stop offset="0" stop-color="#315b8e"></stop><stop offset="1" stop-color="#5ba5ea"></stop></linearGradient><linearGradient x1="35.55426" y1="18.09318" x2="34.84715" y2="17.38608" gradientUnits="userSpaceOnUse" id="color-35"><stop offset="0" stop-color="#315b8e"></stop><stop offset="1" stop-color="#5ba5ea"></stop></linearGradient><linearGradient x1="34.14004" y1="19.5074" x2="33.43294" y2="18.80029" gradientUnits="userSpaceOnUse" id="color-36"><stop offset="0" stop-color="#315b8e"></stop><stop offset="1" stop-color="#5ba5ea"></stop></linearGradient><linearGradient x1="32.72583" y1="20.92161" x2="32.01872" y2="20.2145" gradientUnits="userSpaceOnUse" id="color-37"><stop offset="0" stop-color="#315b8e"></stop><stop offset="1" stop-color="#5ba5ea"></stop></linearGradient><linearGradient x1="31.31162" y1="22.33582" x2="30.60451" y2="21.62872" gradientUnits="userSpaceOnUse" id="color-38"><stop offset="0" stop-color="#315b8e"></stop><stop offset="1" stop-color="#5ba5ea"></stop></linearGradient><linearGradient x1="29.8974" y1="23.75004" x2="29.1903" y2="23.04293" gradientUnits="userSpaceOnUse" id="color-39"><stop offset="0" stop-color="#315b8e"></stop><stop offset="1" stop-color="#5ba5ea"></stop></linearGradient><linearGradient x1="28.48319" y1="25.16425" x2="27.77608" y2="24.45714" gradientUnits="userSpaceOnUse" id="color-40"><stop offset="0" stop-color="#315b8e"></stop><stop offset="1" stop-color="#5ba5ea"></stop></linearGradient><linearGradient x1="27.06898" y1="26.57846" x2="26.36187" y2="25.87136" gradientUnits="userSpaceOnUse" id="color-41"><stop offset="0" stop-color="#315b8e"></stop><stop offset="1" stop-color="#5ba5ea"></stop></linearGradient><linearGradient x1="25.62011" y1="27.95803" x2="24.94766" y2="27.28557" gradientUnits="userSpaceOnUse" id="color-42"><stop offset="0" stop-color="#315b8e"></stop><stop offset="1" stop-color="#5ba5ea"></stop></linearGradient></defs><g transform="translate(38.39859,38.39859) scale(0.7,0.7)"><g fill="none" fill-rule="nonzero" stroke="none" stroke-width="1" stroke-linecap="butt" stroke-linejoin="miter" stroke-miterlimit="10" stroke-dasharray="" stroke-dashoffset="0" font-family="none" font-weight="none" font-size="none" text-anchor="none" style="mix-blend-mode: normal"><g transform="translate(-55.97523,143.1425) rotate(-44) scale(5.33333,5.33333)"><rect x="-54.98745" y="-3.15334" transform="rotate(-134.999)" width="0.5" height="4" fill="#afafaf"></rect><rect x="-48.98591" y="-1.15374" transform="rotate(-134.999)" width="0.5" height="4" fill="#afafaf"></rect><rect x="-42.98607" y="0.84756" transform="rotate(-134.999)" width="0.5" height="4" fill="#afafaf"></rect><rect x="12.93332" y="-0.84665" transform="rotate(45.001)" width="0.5" height="4" fill="#afafaf"></rect><rect x="18.93379" y="-2.84745" transform="rotate(45.001)" width="0.5" height="4" fill="#afafaf"></rect><rect x="24.93285" y="-4.84725" transform="rotate(45.001)" width="0.5" height="4" fill="#afafaf"></rect><path d="M16.594,12.568l-1.679,-1.635l4.353,-4.839c0.207,-0.207 0.544,-0.207 0.751,0l1.37,1.37c0.207,0.207 0.207,0.544 0,0.751z" fill="url(#color-1)"></path><path d="M21.042,8.531l0.347,-0.315c0.207,-0.207 0.207,-0.544 0,-0.751l-1.37,-1.37c-0.207,-0.207 -0.544,-0.207 -0.751,0l-0.314,0.349z" fill="url(#color-2)"></path><path d="M22.958,14.69l-1.679,-1.635l4.353,-4.839c0.207,-0.207 0.544,-0.207 0.751,0l1.37,1.37c0.207,0.207 0.207,0.544 0,0.751z" fill="url(#color-3)"></path><path d="M27.406,10.652l0.347,-0.315c0.207,-0.207 0.207,-0.544 0,-0.751l-1.37,-1.37c-0.207,-0.207 -0.544,-0.207 -0.751,0l-0.314,0.349z" fill="url(#color-4)"></path><path d="M31.664,13.496l-23.217,-7.297c-0.941,-0.295 -1.969,-0.044 -2.666,0.654l-2.401,2.401h1.414l14.849,7.778l4.243,4.243z" fill="url(#color-5)"></path><path d="M8.447,6.199c-0.941,-0.295 -1.969,-0.044 -2.666,0.654l-0.063,0.063l23.241,9.286l2.705,-2.705z" fill="url(#color-6)"></path><path d="M21.102,15.352l-16.284,-7.536l-0.376,0.376l16.338,7.546l3.239,3.238l0.353,-0.353z" fill="#a4a4a4"></path><path d="M35.421,31.395l1.635,1.679l4.839,-4.353c0.207,-0.207 0.207,-0.544 0,-0.751l-1.37,-1.37c-0.207,-0.207 -0.544,-0.207 -0.751,0z" fill="url(#color-7)"></path><path d="M39.459,26.947l0.315,-0.347c0.207,-0.207 0.544,-0.207 0.751,0l1.37,1.37c0.207,0.207 0.207,0.544 0,0.751l-0.349,0.314z" fill="url(#color-8)"></path><path d="M33.3,25.031l1.635,1.679l4.839,-4.353c0.207,-0.207 0.207,-0.544 0,-0.751l-1.37,-1.37c-0.207,-0.207 -0.544,-0.207 -0.751,0z" fill="url(#color-9)"></path><path d="M37.337,20.583l0.315,-0.347c0.207,-0.207 0.544,-0.207 0.751,0l1.37,1.37c0.207,0.207 0.207,0.544 0,0.751l-0.349,0.314z" fill="url(#color-10)"></path><path d="M34.493,16.325l7.297,23.218c0.296,0.941 0.044,1.968 -0.654,2.666l-2.401,2.401v-1.414l-7.778,-14.849l-4.243,-4.243z" fill="url(#color-11)"></path><path d="M41.79,39.542c0.296,0.941 0.044,1.968 -0.654,2.666l-0.063,0.063l-9.286,-23.241l2.705,-2.705z" fill="url(#color-12)"></path><path d="M32.674,26.924l7.536,16.284l-0.376,0.376l-7.546,-16.338l-3.238,-3.239l0.353,-0.353z" fill="#a4a4a4"></path><path d="M16.108,33.295l1.196,8.371c0.137,0.962 -0.186,1.933 -0.873,2.62l-1.03,1.03l-4.243,-8.485z" fill="url(#color-13)"></path><path d="M14.694,31.881l-8.371,-1.196c-0.962,-0.137 -1.933,0.186 -2.62,0.873l-1.03,1.03l8.485,4.243z" fill="url(#color-14)"></path><path d="M11.158,36.831l0.073,-0.102l-0.092,0.092z" fill="url(#color-15)"></path><path d="M5.129,31.829l7.839,2.468l1.725,-2.416l-8.371,-1.196c-0.962,-0.137 -1.933,0.186 -2.62,0.873l-0.21,0.21c0.537,-0.116 1.099,-0.109 1.637,0.061z" fill="url(#color-16)"></path><path d="M16.161,42.86l-2.468,-7.839l2.416,-1.725l1.196,8.371c0.137,0.962 -0.186,1.933 -0.873,2.62l-0.21,0.21c0.115,-0.537 0.108,-1.099 -0.061,-1.637z" fill="url(#color-17)"></path><path d="M38.964,13.725l0.478,0.478l0.707,-0.707l-0.478,-0.478c-0.126,-0.126 -0.331,-0.126 -0.458,0l-0.25,0.25c-0.125,0.126 -0.125,0.331 0.001,0.457z" fill="#000000"></path><path d="M37.55,15.139l0.478,0.478l0.707,-0.707l-0.478,-0.478c-0.126,-0.126 -0.331,-0.126 -0.458,0l-0.25,0.25c-0.125,0.126 -0.125,0.331 0.001,0.457z" fill="#000000"></path><path d="M36.136,16.554l0.478,0.478l0.707,-0.707l-0.478,-0.478c-0.126,-0.126 -0.331,-0.126 -0.458,0l-0.25,0.25c-0.125,0.125 -0.125,0.33 0.001,0.457z" fill="#000000"></path><path d="M43.685,4.304c-1.414,-1.414 -6.364,0.707 -9.192,3.536l-13.334,13.333c-2.411,2.411 -4.448,5.169 -6.043,8.182l-3.958,7.475l7.475,-3.958c3.013,-1.595 5.771,-3.632 8.182,-6.043l13.335,-13.333c2.828,-2.828 4.95,-7.778 3.535,-9.192z" fill="url(#color-18)"></path><path d="M17.444,31.194c0.083,-0.379 -0.269,-0.731 -0.649,-0.649c-0.634,0.138 -1.221,0.456 -1.687,0.922l-2.013,2.013c-0.818,0.818 -1.568,1.703 -2.24,2.645l-2.525,3.534l3.535,-2.525c0.942,-0.673 1.826,-1.422 2.645,-2.24l2.013,-2.013c0.465,-0.466 0.783,-1.053 0.921,-1.687z" fill="url(#color-19)"></path><path d="M41.569,7.569c-0.091,-0.276 -0.226,-0.531 -0.419,-0.725c-0.194,-0.193 -0.45,-0.328 -0.725,-0.419l0.535,-1.306c0.493,0.043 0.944,0.236 1.311,0.6v0c0.001,0.001 0.001,0.002 0.002,0.002c0.001,0.001 0.002,0.001 0.002,0.002v0c0.364,0.367 0.557,0.817 0.6,1.311zM42.863,7.573l-1.18,0.483c0.057,0.438 0.012,0.88 -0.119,1.198l0.391,0.391c0.513,-0.676 0.829,-1.397 0.908,-2.072zM38.349,6.039l0.391,0.391c0.318,-0.13 0.759,-0.176 1.198,-0.119l0.483,-1.18c-0.675,0.078 -1.396,0.394 -2.072,0.908z" fill="url(#color-20)"></path><path d="M34.971,8.318l-0.478,-0.478l-0.707,0.707l0.478,0.478c0.126,0.126 0.331,0.126 0.458,0l0.25,-0.25c0.126,-0.126 0.126,-0.331 -0.001,-0.457z" fill="url(#color-21)"></path><path d="M33.557,9.732l-0.478,-0.478l-0.707,0.707l0.478,0.478c0.126,0.126 0.331,0.126 0.458,0l0.25,-0.25c0.125,-0.126 0.125,-0.331 -0.001,-0.457z" fill="url(#color-22)"></path><path d="M32.143,11.146l-0.478,-0.478l-0.707,0.707l0.478,0.478c0.126,0.126 0.331,0.126 0.458,0l0.25,-0.25c0.125,-0.126 0.125,-0.33 -0.001,-0.457z" fill="url(#color-23)"></path><path d="M30.729,12.56l-0.478,-0.478l-0.707,0.707l0.478,0.478c0.126,0.126 0.331,0.126 0.458,0l0.25,-0.25c0.125,-0.125 0.125,-0.33 -0.001,-0.457z" fill="url(#color-24)"></path><path d="M29.314,13.975l-0.478,-0.478l-0.707,0.707l0.478,0.478c0.126,0.126 0.331,0.126 0.458,0l0.25,-0.25c0.126,-0.126 0.126,-0.331 -0.001,-0.457z" fill="url(#color-25)"></path><path d="M27.9,15.389l-0.478,-0.478l-0.707,0.707l0.478,0.478c0.126,0.126 0.331,0.126 0.458,0l0.25,-0.25c0.126,-0.126 0.126,-0.331 -0.001,-0.457z" fill="url(#color-26)"></path><path d="M26.486,16.803l-0.478,-0.478l-0.707,0.707l0.478,0.478c0.126,0.126 0.331,0.126 0.458,0l0.25,-0.25c0.125,-0.126 0.125,-0.331 -0.001,-0.457z" fill="url(#color-27)"></path><path d="M25.072,18.217l-0.478,-0.478l-0.707,0.707l0.478,0.478c0.126,0.126 0.331,0.126 0.458,0l0.25,-0.25c0.125,-0.126 0.125,-0.33 -0.001,-0.457z" fill="url(#color-28)"></path><path d="M23.658,19.631l-0.478,-0.478l-0.707,0.707l0.478,0.478c0.126,0.126 0.331,0.126 0.458,0l0.25,-0.25c0.125,-0.125 0.125,-0.33 -0.001,-0.457z" fill="url(#color-29)"></path><path d="M22.243,21.046l-0.478,-0.478l-0.707,0.707l0.478,0.478c0.126,0.126 0.331,0.126 0.458,0l0.25,-0.25c0.126,-0.126 0.126,-0.331 -0.001,-0.457z" fill="url(#color-30)"></path><path d="M20.829,22.46l-0.444,-0.444c-0.228,0.244 -0.446,0.497 -0.667,0.747l0.404,0.404c0.126,0.126 0.331,0.126 0.458,0l0.25,-0.25c0.125,-0.126 0.125,-0.331 -0.001,-0.457z" fill="url(#color-31)"></path><g><path d="M39.671,13.018l0.478,0.478l-0.707,0.707l-0.478,-0.478c-0.126,-0.126 -0.126,-0.331 0,-0.458l0.25,-0.25c0.126,-0.125 0.331,-0.125 0.457,0.001z" fill="url(#color-32)"></path><path d="M38.257,14.432l0.478,0.478l-0.707,0.707l-0.478,-0.478c-0.126,-0.126 -0.126,-0.331 0,-0.458l0.25,-0.25c0.126,-0.125 0.331,-0.125 0.457,0.001z" fill="url(#color-33)"></path><path d="M36.843,15.846l0.478,0.478l-0.707,0.707l-0.478,-0.478c-0.126,-0.126 -0.126,-0.331 0,-0.458l0.25,-0.25c0.126,-0.125 0.331,-0.125 0.457,0.001z" fill="url(#color-34)"></path><path d="M35.429,17.261l0.478,0.478l-0.707,0.707l-0.478,-0.478c-0.126,-0.126 -0.126,-0.331 0,-0.458l0.25,-0.25c0.126,-0.126 0.33,-0.126 0.457,0.001z" fill="url(#color-35)"></path><path d="M34.015,18.675l0.478,0.478l-0.707,0.707l-0.478,-0.478c-0.126,-0.126 -0.126,-0.331 0,-0.458l0.25,-0.25c0.125,-0.126 0.33,-0.126 0.457,0.001z" fill="url(#color-36)"></path><path d="M32.6,20.089l0.478,0.478l-0.707,0.707l-0.478,-0.478c-0.126,-0.126 -0.126,-0.331 0,-0.458l0.25,-0.25c0.126,-0.125 0.331,-0.125 0.457,0.001z" fill="url(#color-37)"></path><path d="M31.186,21.503l0.478,0.478l-0.707,0.707l-0.478,-0.478c-0.126,-0.126 -0.126,-0.331 0,-0.458l0.25,-0.25c0.126,-0.125 0.331,-0.125 0.457,0.001z" fill="url(#color-38)"></path><path d="M29.772,22.917l0.478,0.478l-0.707,0.707l-0.478,-0.478c-0.126,-0.126 -0.126,-0.331 0,-0.458l0.25,-0.25c0.126,-0.125 0.331,-0.125 0.457,0.001z" fill="url(#color-39)"></path><path d="M28.358,24.332l0.478,0.478l-0.707,0.707l-0.478,-0.478c-0.126,-0.126 -0.126,-0.331 0,-0.458l0.25,-0.25c0.126,-0.126 0.33,-0.126 0.457,0.001z" fill="url(#color-40)"></path><path d="M26.944,25.746l0.478,0.478l-0.707,0.707l-0.478,-0.478c-0.126,-0.126 -0.126,-0.331 0,-0.458l0.25,-0.25c0.125,-0.125 0.33,-0.125 0.457,0.001z" fill="url(#color-41)"></path><path d="M25.529,27.16l0.444,0.444c-0.244,0.228 -0.497,0.446 -0.747,0.667l-0.404,-0.404c-0.126,-0.126 -0.126,-0.331 0,-0.458l0.25,-0.25c0.126,-0.125 0.331,-0.125 0.457,0.001z" fill="url(#color-42)"></path></g><path d="M18.937,29.303c-0.064,0 -0.128,-0.024 -0.177,-0.073c-0.098,-0.098 -0.098,-0.256 0,-0.354l5.598,-5.598c0.098,-0.098 0.256,-0.098 0.354,0c0.098,0.098 0.098,0.256 0,0.354l-5.598,5.598c-0.05,0.048 -0.113,0.073 -0.177,0.073z" fill="#d9d9d9"></path><path d="M30.044,18.195c-0.064,0 -0.128,-0.024 -0.177,-0.073c-0.098,-0.098 -0.098,-0.256 0,-0.354l2.888,-2.888c0.098,-0.098 0.256,-0.098 0.354,0c0.098,0.098 0.098,0.256 0,0.354l-2.888,2.888c-0.049,0.049 -0.113,0.073 -0.177,0.073z" fill="#d9d9d9"></path></g></g></g></svg>