<?xml version="1.0" encoding="utf-8" standalone="yes"?>
<!DOCTYPE svg PUBLIC "-//W3C//DTD SVG 1.1//EN" "http://www.w3.org/Graphics/SVG/1.1/DTD/svg11.dtd">
<svg style="fill:none;stroke:none;fill-rule:evenodd;clip-rule:evenodd;stroke-linecap:round;stroke-linejoin:round;stroke-miterlimit:1.5;" version="1.1" xmlns="http://www.w3.org/2000/svg" xmlns:xlink="http://www.w3.org/1999/xlink" width="706" height="397" viewBox="0 0 706 397"><style class="text-font-style fontImports" data-font-family="Roboto">@import url(https://fonts.googleapis.com/css2?family=Roboto:wght@400;700&amp;amp;display=block);</style><g id="items" style="isolation: isolate"><g id="blend" style="mix-blend-mode: normal"><g id="g-root-tx_flighttr_1hjghrekbsidi-fill" data-item-order="0" transform="translate(156.888916015625, 14)"><g id="tx_flighttr_1hjghrekbsidi-fill-merged" stroke="none" fill="#f4f4f4" fill-opacity="1"><g><text style="font: bold 25px Roboto, sans-serif; white-space: pre;" transform="translate(196, 28)" font-weight="bold" font-size="25px" font-family="Roboto, sans-serif"><tspan x="-181.2" y="14" dominant-baseline="ideographic">Flight Training Audio Integration</tspan></text></g></g></g><g id="g-root-ic_48px_v2zy0akbr4zq-fill" data-item-order="0" transform="translate(90.888916015625, 111)"></g><g id="g-root-ic_48px_qtf3l6kbtyit-fill" data-item-order="0" transform="translate(186.888916015625, 99)"></g><g id="g-root-ic_48px_18gy9kakc7y18-fill" data-item-order="0" transform="translate(306.888916015625, 111)"></g><g id="g-root-ic_48px_1q88a22kc3ril-fill" data-item-order="0" transform="translate(522.888916015625, 109)"></g><g id="g-root-tx_pilotstr_14306p6kbtxxn-fill" data-item-order="0" transform="translate(30.888916015625, 219)"><g id="tx_pilotstr_14306p6kbtxxn-fill-merged" stroke="none" fill="#f4f4f4" fill-opacity="1"><g><text style="font: bold 20px Roboto, sans-serif; white-space: pre;" transform="translate(94, 22)" font-weight="bold" font-size="20px" font-family="Roboto, sans-serif"><tspan x="-76.1" y="12" dominant-baseline="ideographic">Pilots &amp; Trainees</tspan></text></g></g></g><g id="g-root-tx_simbuild_18hkqnekbtvr5-fill" data-item-order="0" transform="translate(246.888916015625, 219)"><g id="tx_simbuild_18hkqnekbtvr5-fill-merged" stroke="none" fill="#f4f4f4" fill-opacity="1"><g><text style="font: bold 20px Roboto, sans-serif; white-space: pre;" transform="translate(70, 22)" font-weight="bold" font-size="20px" font-family="Roboto, sans-serif"><tspan x="-57.06" y="12" dominant-baseline="ideographic">Sim Builders</tspan></text></g></g></g><g id="g-root-tx_training_dbpucqkbtyiv-fill" data-item-order="0" transform="translate(462.888916015625, 219)"><g id="tx_training_dbpucqkbtyiv-fill-merged" stroke="none" fill="#f4f4f4" fill-opacity="1"><g><text style="font: bold 20px Roboto, sans-serif; white-space: pre;" transform="translate(82, 22)" font-weight="bold" font-size="20px" font-family="Roboto, sans-serif"><tspan x="-69.45" y="12" dominant-baseline="ideographic">Training Teams</tspan></text></g></g></g><g id="g-root-tx_practice_1ur65m2kbtwxw-fill" data-item-order="0" transform="translate(30.888916015625, 255)"><g id="tx_practice_1ur65m2kbtwxw-fill-merged" stroke="none" fill="#f4f4f4" fill-opacity="1"><g><text style="font: 20px Roboto, sans-serif; white-space: pre;" transform="translate(88, 46)" font-size="20px" font-family="Roboto, sans-serif"><tspan x="-60.1" y="-12" dominant-baseline="ideographic">Practice with </tspan><tspan x="-72.52" y="12" dominant-baseline="ideographic">realistic cockpit </tspan><tspan x="-27.21" y="36" dominant-baseline="ideographic">audio</tspan></text></g></g></g><g id="g-root-tx_exportau_8zn6qykbtwju-fill" data-item-order="0" transform="translate(246.888916015625, 255)"><g id="tx_exportau_8zn6qykbtwju-fill-merged" stroke="none" fill="#f4f4f4" fill-opacity="1"><g><text style="font: 20px Roboto, sans-serif; white-space: pre;" transform="translate(88, 34)" font-size="20px" font-family="Roboto, sans-serif"><tspan x="-73.61" y="0" dominant-baseline="ideographic">Export audio for </tspan><tspan x="-49.67" y="24" dominant-baseline="ideographic">simulators</tspan></text></g></g></g><g id="g-root-tx_shareres_hterqikbtwqw-fill" data-item-order="0" transform="translate(462.888916015625, 255)"><g id="tx_shareres_hterqikbtwqw-fill-merged" stroke="none" fill="#f4f4f4" fill-opacity="1"><g><text style="font: 20px Roboto, sans-serif; white-space: pre;" transform="translate(106, 34)" font-size="20px" font-family="Roboto, sans-serif"><tspan x="-89.47" y="0" dominant-baseline="ideographic">Share resources for </tspan><tspan x="-55.77" y="24" dominant-baseline="ideographic">consistency</tspan></text></g></g></g><g id="g-root-tx_flighttr_1hjghrekbsidi-stroke" data-item-order="0" transform="translate(156.888916015625, 14)"></g><g id="g-root-ic_48px_v2zy0akbr4zq-stroke" data-item-order="0" transform="translate(90.888916015625, 111)"><g id="ic_48px_v2zy0akbr4zq-stroke" fill="none" stroke-linecap="round" stroke-linejoin="round" stroke-miterlimit="4" stroke="#f4f4f4" stroke-width="1" stroke-opacity="1"><g><path d="M 57.586601 41.862099C 57.586601 48.260948 52.3993 53.44825 46.00045 53.44825C 39.601452 53.44825 34.41415 48.260948 34.41415 41.862099C 34.41415 35.463249 39.601452 30.275801 46.00045 30.275801C 52.3993 30.275801 57.586601 35.463249 57.586601 41.862099ZM 45.970749 22C 35.017899 22 26.13895 30.858101 26.13895 41.785301C 26.13895 56.261497 46.00045 70 46.00045 70C 46.00045 70 65.861946 56.261497 65.861946 41.785301C 65.861946 30.858101 56.983002 22 46.029999 22L 45.970749 22Z"></path></g></g></g><g id="g-root-ic_48px_qtf3l6kbtyit-stroke" data-item-order="0" transform="translate(186.888916015625, 99)"><g id="ic_48px_qtf3l6kbtyit-stroke" fill="none" stroke-linecap="round" stroke-linejoin="round" stroke-miterlimit="4" stroke="#f4f4f4" stroke-width="1" stroke-opacity="1"><g><path d="M 51.347599 71.567596L 48.5238 65.017395L 40.684601 65.017395C 40.684601 65.017395 34.648201 64.630798 27.771681 63.849201L 19.337059 77.638397L 14.189819 77.594002L 16.947001 61.186401L 16.961941 59.643799C 14.00838 59.329399 12 58.711201 12 58C 12 57.286201 14.02284 56.666199 16.993839 56.352798L 17.00816 54.874001L 14.5406 38.2206L 19.68784 38.264999L 27.8818 52.195202C 34.774597 51.530399 40.811001 51.486198 40.811001 51.486198L 48.641998 51.486198L 51.584202 44.476799L 46.828602 12L 53.799 12.07654L 59.476398 23.13846L 63.338799 23.170681C 64.231995 23.17874 64.945801 23.8958 64.937599 24.773979L 64.909195 27.948339C 64.904999 28.826521 64.175003 29.531481 63.285801 29.5194L 62.763802 29.5194L 67.796799 39.308399L 71.137199 39.336601C 72.030396 39.344601 72.744202 40.0616 72.736 40.9398L 72.707397 44.114201C 72.699402 44.996399 71.973404 45.701401 71.084198 45.693401L 74.041199 51.486198L 89.048203 51.486198C 94.060799 51.530399 101.622597 54.737 103.368202 56.751202C 104.220596 57.730202 104.208397 59.176201 103.343803 60.1432C 101.565399 62.137199 93.946602 65.061798 88.933998 65.017395L 73.927002 65.017395L 70.872002 70.669205C 71.765396 70.677399 72.479004 71.394402 72.471001 72.272598L 72.442398 75.4468C 72.434204 76.329201 71.708199 77.033997 70.819 77.026001L 67.4786 76.997803L 62.274399 86.7062L 62.796398 86.7062C 63.689602 86.714203 64.403397 87.431396 64.395203 88.309402L 64.3666 91.483803C 64.358597 92.365997 63.632599 93.070999 62.743401 93.063004L 58.881001 93.0308L 52.995399 104L 46.025002 103.923401L 51.347599 71.567596ZM 71.096199 45.701401C 71.985199 45.7094 72.711197 45.004398 72.719398 44.1222L 72.748001 40.9478C 72.756195 40.069801 72.042404 39.3526 71.1492 39.344601L 67.8088 39.316399L 71.091995 45.701401L 71.096199 45.701401ZM 64.9216 27.952339L 64.950195 24.777981C 64.958199 23.899799 64.244598 23.182739 63.351398 23.174679L 59.4888 23.14246L 62.772202 29.52742L 63.294201 29.52742C 64.183395 29.53952 64.909401 28.834539 64.917404 27.95636L 64.9216 27.952339ZM 67.482201 77.001801L 70.822601 77.029999C 71.7118 77.038002 72.437805 76.333 72.445999 75.454803L 72.474602 72.280602C 72.482605 71.402405 71.768997 70.685394 70.875801 70.6772L 67.482201 77.005798L 67.482201 77.001801ZM 64.370804 91.483803L 64.399399 88.309402C 64.4076 87.431198 63.693802 86.714203 62.800598 86.7062L 62.2784 86.7062L 62.2784 86.702202L 58.884998 93.0308L 62.747398 93.063004C 63.6366 93.070999 64.362595 92.365997 64.370804 91.483803ZM 58.376999 65.029602L 57.737999 67.704399L 49.491001 103.955803M 58.517601 51.2766L 50.291 12.03222M 90.177803 62.469398C 90.680801 62.448002 91.160599 62.3992 91.625 62.3228C 92.751198 62.142799 93.645203 61.441002 93.892799 60.556C 94.268204 59.2164 94.283798 57.8312 93.9394 56.485401C 93.710999 55.597401 92.832603 54.886398 91.713997 54.688202C 91.249603 54.605801 90.765999 54.5508 90.2668 54.520401C 91.18 55.747002 91.241997 57.120201 91.2304 58.493198C 91.218803 59.866402 91.125801 61.245602 90.181602 62.466202L 90.177803 62.469398ZM 12.00002 58C 12.00002 59.0298 16.209801 59.864399 21.40284 59.864399C 26.595881 59.864399 30.805599 59.0298 30.805599 58C 30.805599 56.970402 26.595881 56.135601 21.40284 56.135601C 16.209801 56.135601 12.00002 56.970402 12.00002 58ZM 74.042 51.489201L 48.634602 51.489201M 73.926804 65.024796L 48.509998 65.024796M 17.14814 61.156399L 27.985359 63.831001M 28.08692 52.168999L 17.2094 54.846401"></path></g></g></g><g id="g-root-ic_48px_18gy9kakc7y18-stroke" data-item-order="0" transform="translate(306.888916015625, 111)"><g id="ic_48px_18gy9kakc7y18-stroke" fill="none" stroke-linecap="round" stroke-linejoin="round" stroke-miterlimit="4" stroke="#f4f4f4" stroke-width="1" stroke-opacity="1"><g><path d="M 57.586601 41.862099C 57.586601 48.260948 52.3993 53.44825 46.00045 53.44825C 39.601452 53.44825 34.41415 48.260948 34.41415 41.862099C 34.41415 35.463249 39.601452 30.275801 46.00045 30.275801C 52.3993 30.275801 57.586601 35.463249 57.586601 41.862099ZM 45.970749 22C 35.017899 22 26.13895 30.858101 26.13895 41.785301C 26.13895 56.261497 46.00045 70 46.00045 70C 46.00045 70 65.861946 56.261497 65.861946 41.785301C 65.861946 30.858101 56.983002 22 46.029999 22L 45.970749 22Z"></path></g></g></g><g id="g-root-ic_48px_1q88a22kc3ril-stroke" data-item-order="0" transform="translate(522.888916015625, 109)"><g id="ic_48px_1q88a22kc3ril-stroke" fill="none" stroke-linecap="round" stroke-linejoin="round" stroke-miterlimit="4" stroke="#f4f4f4" stroke-width="1" stroke-opacity="1"><g><path d="M 57.586601 41.862099C 57.586601 48.260948 52.3993 53.44825 46.00045 53.44825C 39.601452 53.44825 34.41415 48.260948 34.41415 41.862099C 34.41415 35.463249 39.601452 30.275801 46.00045 30.275801C 52.3993 30.275801 57.586601 35.463249 57.586601 41.862099ZM 45.970749 22C 35.017899 22 26.13895 30.858101 26.13895 41.785301C 26.13895 56.261497 46.00045 70 46.00045 70C 46.00045 70 65.861946 56.261497 65.861946 41.785301C 65.861946 30.858101 56.983002 22 46.029999 22L 45.970749 22Z"></path></g></g></g><g id="g-root-tx_pilotstr_14306p6kbtxxn-stroke" data-item-order="0" transform="translate(30.888916015625, 219)"></g><g id="g-root-tx_simbuild_18hkqnekbtvr5-stroke" data-item-order="0" transform="translate(246.888916015625, 219)"></g><g id="g-root-tx_training_dbpucqkbtyiv-stroke" data-item-order="0" transform="translate(462.888916015625, 219)"></g><g id="g-root-tx_practice_1ur65m2kbtwxw-stroke" data-item-order="0" transform="translate(30.888916015625, 255)"></g><g id="g-root-tx_exportau_8zn6qykbtwju-stroke" data-item-order="0" transform="translate(246.888916015625, 255)"></g><g id="g-root-tx_shareres_hterqikbtwqw-stroke" data-item-order="0" transform="translate(462.888916015625, 255)"></g></g></g><path id="w94m70aj7u51i" d="M65.283 12.757a.35.35 0 0 0 .584.157l5.203-5.141-6.183 3.523.396 1.461zm-2.216-11.7a.35.35 0 0 0-.522.305v3.111l3.276-1.868-2.754-1.548zm3.728 2.105l-4.25 2.421v2.445l6.391-3.644-2.141-1.222zm4.708 3.303a.35.35 0 0 0 0-.609l-1.592-.9-7.365 4.199v1.782a.35.35 0 0 0 .523.305l8.435-4.777z M44.542 2.513c0-.433.355-.783.792-.783s.792.35.792.783-.355.783-.792.783-.792-.35-.792-.783zm59.171 0c0-.433.355-.783.792-.783s.792.35.792.783-.355.783-.792.783-.792-.35-.792-.783zm-85.951 7.636h-1.27v-.487c-.276.201-.864.609-1.881.609-1.202 0-2.274-.794-2.137-2.078.118-1.106 1.153-1.584 1.848-1.727l2.17-.345c0-.539-.29-.956-1.064-1.006s-1.21.305-1.571 1.017l-1.124-.605c1.218-2.631 5.029-1.764 5.029.414v4.207zm-1.27-2.86c.006.396-.062 1.112-.819 1.59-.587.37-1.841.299-1.903-.395-.049-.555.461-.791.906-.898l1.816-.297zm72.662 2.86h-1.27v-.487c-.276.201-.864.609-1.881.609-1.202 0-2.274-.794-2.137-2.078.118-1.106 1.153-1.584 1.848-1.727l2.17-.345c0-.539-.29-.956-1.064-1.006s-1.21.305-1.571 1.017l-1.124-.605c1.218-2.631 5.029-1.764 5.029.414v4.207zm-1.27-2.86c.006.396-.062 1.112-.82 1.59-.587.37-1.841.299-1.903-.395-.049-.555.461-.791.906-.898l1.816-.297zM99.096 10.149H97.85v-8.45h1.246v4.895l2.68-2.559h1.738l-2.633 2.535 2.715 3.578h-1.556l-2.077-2.707-.867.844v1.863zm6.053-6.114h-1.255v6.113h1.255V4.035zm-59.2 0h-1.255v6.113h1.255V4.035zm5.584 6.113V1.697h1.255v2.695c.361-.346 1-.485 1.47-.485 1.452 0 2.477 1.082 2.457 2.448v3.792h-1.27v-3.68c0-.408-.214-1.339-1.315-1.339-.968 0-1.342.756-1.342 1.339v3.681h-1.255zm-4.76-4.894V4.039h.621a.45.45 0 0 0 .45-.45v-.855h1.251v1.305h1.309v1.215h-1.309v3.109c0 .293.105.664.648.664.365 0 .531-.035.736-.07v1.137s-.361.113-.857.113c-1.398 0-1.777-1.051-1.777-1.788V5.254h-1.071zM36.528 4.039h-1.394l2.191 6.106h1.125l1.234-3.918 1.238 3.918h1.129l2.188-6.106h-1.383l-1.359 3.93-1.256-3.93h-1.124l-1.242 3.957-1.348-3.957zM26.212 7.141c-.02 1.566 1.187 3.129 3.223 3.129 1.566 0 2.383-.918 2.734-1.719L31.172 8c-.315.399-.801 1.094-1.738 1.094-1.145 0-1.825-.781-1.891-1.52h4.625c.074-.284.148-.995-.03-1.559-.336-1.064-1.221-2.102-2.839-2.102s-3.088 1.152-3.088 3.227zm1.363-.75h3.348c-.055-.43-.566-1.301-1.623-1.301a1.79 1.79 0 0 0-1.725 1.301zm-8.758.75c.038 1.758 1.277 3.133 3.145 3.133 1.074 0 1.723-.477 1.961-.672v.547h1.242V1.703h-1.258v2.888c-.414-.36-1.062-.68-1.93-.68-1.91 0-3.198 1.473-3.16 3.23zm1.309-.08c0 1.119.723 1.978 1.836 1.978a1.88 1.88 0 0 0 1.94-1.904c0-1.371-1.011-1.99-1.972-1.99s-1.805.798-1.805 1.916zm76.683-.028C96.771 5.275 95.532 3.9 93.664 3.9c-1.074 0-1.723.477-1.961.672v-.547h-1.242v8.22h1.258V9.583c.414.36 1.063.68 1.93.68 1.91 0 3.198-1.473 3.16-3.23zm-1.309.08c0-1.119-.723-1.978-1.836-1.978a1.88 1.88 0 0 0-1.94 1.904c0 1.371 1.011 1.99 1.972 1.99S95.5 8.231 95.5 7.113zM106.441 10.173V4.036h1.254v.382c.361-.346 1-.485 1.47-.485 1.452 0 2.477 1.082 2.457 2.448v3.792h-1.27V6.492c0-.408-.214-1.339-1.315-1.339-.969 0-1.342.756-1.342 1.339v3.681h-1.254zm-30.383-.021V1.824h1.084l4.215 5.777V1.824h1.32v8.328h-1.094l-4.207-5.796v5.796h-1.319zM5.24 10.149H4V2.377h1.014l2.664 3.597 2.654-3.592h1.03v7.766h-1.256V4.762L7.678 8.068 5.24 4.742v5.407z" transform="translate(569.77783203125, 363)" fill="#ababab88" stroke="none"></path></svg>