<?xml version="1.0" encoding="utf-8" standalone="yes"?>
<!DOCTYPE svg PUBLIC "-//W3C//DTD SVG 1.1//EN" "http://www.w3.org/Graphics/SVG/1.1/DTD/svg11.dtd">
<svg style="fill:none;stroke:none;fill-rule:evenodd;clip-rule:evenodd;stroke-linecap:round;stroke-linejoin:round;stroke-miterlimit:1.5;" version="1.1" xmlns="http://www.w3.org/2000/svg" xmlns:xlink="http://www.w3.org/1999/xlink" width="729" height="460" viewBox="0 0 729 460"><style class="text-font-style fontImports" data-font-family="Roboto">@import url(https://fonts.googleapis.com/css2?family=Roboto:wght@400;700&amp;amp;display=block);</style><g id="items" style="isolation: isolate"><g id="blend" style="mix-blend-mode: normal"><g id="g-root-sy_3_cu_92rqd0lfto1y-fill" data-item-order="999827690" transform="translate(261.8079833984375, 139.0361328125)"><g id="sy_3_cu_92rqd0lfto1y-fill-merged" stroke="none" fill="#4e8df3" fill-opacity="1"><g><path d="M41.866 76.315C40.531 75.19 39.799 74.573 39.066 73.955C38.335 73.339 37.603 72.722 36.271 71.6L36.131 80.282L41.866 76.315 M174.266 107.173L177.82 107.354 V101.73L185.742 98.87L187.295 99.464L190.788 100.811 V89.424L193.263 89.018 V53.018L174.651 56.069L174.141 58.798C174.007 59.512 173.874 60.226 173.63 61.527L174.651 61.808L190.789 66.248C189.818 67.801 189.43 68.422 189.042 69.043C188.654 69.664 188.266 70.284 187.295 71.839L167.809 70.843C166.527 71.983 165.824 72.609 165.119 73.235C164.417 73.859 163.714 74.484 162.434 75.621L167.81 79.165L174.266 83.421L171.858 84.788C170.071 85.803 169.752 85.984 166.522 87.819L149.531 82.949L146.776 83.974L146.555 84.056C144.743 84.73 143.657 85.134 140.731 86.222L145.19 95.753L134.536 98.196L122.979 90.294C121.427 90.468 120.301 90.595 119.341 90.703L117.626 90.895C116.226 91.052 114.825 91.21 112.274 91.496L108.59 101.108L96.868 101.176L92.744 91.607L87.366 91.068L81.988 90.529L70.797 98.562L60.033 96.242L64.052 86.663L59.578 85.078L55.104 83.492L38.341 88.556L34.369 86.403L30.397 84.249L36.132 80.282L36.271 71.6L16.836 72.82C15.559 70.931 15.221 70.431 14.672 69.619L13.085 67.271L28.749 62.723L30.021 62.354L29.385 59.631L28.749 56.909L10 54.073 V90.073L12.731 90.486L13.086 90.321L16.836 88.618L19.28 87.508L28.507 90.489 V104.984L30.397 104.809L38.341 104.153L50.517 103.15L55.104 108.095 V119.492L59.578 121.078L60.033 121.239 V132.242L70.796 134.562L81.988 126.529L87.366 127.068L92.744 127.607L96.868 137.176L108.59 137.108L112.274 127.496C114.825 127.21 116.226 127.052 117.626 126.895C119.035 126.737 120.435 126.58 122.979 126.294L134.537 134.196L145.189 131.752 V120.564L146.776 119.974L149.531 118.949L155.625 120.696 V119.475L158.66 114.831L166.523 114.94L174.266 115.046 V107.173 M183.395 34.612L168.875 41.181C169.711 42.419 170.171 43.098 170.63 43.778C171.089 44.458 171.548 45.137 172.385 46.375L183.395 46.841 V34.612 M159.397 19.803L151.48 28.755L155.197 30.77L158.914 32.786L159.397 19.803 M43.403 33.45L50.651 29.334L42.323 20.476 V33.276L43.403 33.45 M33.027 43.248L33.833 41.958L19.014 35.557 V47.813L30.564 47.19C31.798 45.214 32.151 44.65 33.02 43.259 M101.633 37.648C81.751 37.648 65.633 45.694 65.633 55.618C65.633 62.783 74.033 68.968 86.185 71.854C90.866 70.742 96.104 70.12 101.633 70.12C107.162 70.12 112.4 70.742 117.081 71.854C129.233 68.968 137.633 62.782 137.633 55.618C137.633 45.694 121.515 37.648 101.633 37.648 M10.545 51.158C10.628 50.713 11.089 48.241 11.089 48.241L19.014 47.814L30.564 47.191C31.798 45.214 32.151 44.65 33.02 43.26C33.022 43.256 33.025 43.252 33.027 43.249L33.833 41.958L19.014 35.558L20.867 33.91C22.132 32.785 22.398 32.549 24.757 30.452L42.323 33.277L43.403 33.45L50.651 29.335L42.323 20.477C44.001 19.853 45.033 19.469 45.832 19.172C47.524 18.543 48.178 18.3 51.727 16.98L66.321 23.508C68.697 22.964 70.001 22.664 71.306 22.365C72.61 22.066 73.915 21.767 76.291 21.222L75.894 11.436C79.073 11.08 80.343 10.937 81.614 10.795C82.883 10.652 84.153 10.51 87.332 10.153L95.349 19.083C97.992 19.068 99.43 19.059 100.881 19.051C102.301 19.043 103.733 19.035 106.319 19.02L113.923 10C118.77 10.485 119.201 10.528 121.916 10.801C122.78 10.887 123.875 10.997 125.417 11.151 V20.939C127.872 21.456 129.19 21.74 130.508 22.024C131.826 22.309 133.144 22.593 135.545 23.11L149.834 16.416C152.492 17.357 153.554 17.733 154.615 18.109C155.677 18.486 156.739 18.862 159.397 19.803L151.48 28.755C153.252 29.716 154.224 30.243 155.197 30.771C156.17 31.298 157.142 31.826 158.914 32.786L177.417 29.574C179.079 30.976 179.743 31.535 180.407 32.095C181.07 32.654 181.734 33.214 183.395 34.613L168.875 41.182C169.711 42.42 170.171 43.099 170.63 43.779C171.089 44.458 171.548 45.138 172.385 46.375L183.395 46.841L191.903 47.201C192.281 48.818 192.432 49.464 192.583 50.11C192.734 50.756 192.885 51.402 193.263 53.019L174.651 56.07C174.407 57.37 174.274 58.084 174.14 58.798C174.007 59.513 173.873 60.227 173.63 61.527L174.651 61.808L190.789 66.248C189.819 67.802 189.431 68.423 189.043 69.043C188.654 69.664 188.267 70.285 187.295 71.839L167.809 70.844C166.527 71.984 165.823 72.609 165.119 73.235C164.416 73.859 163.713 74.484 162.434 75.622L174.266 83.421L171.858 84.789C170.072 85.803 169.758 85.981 166.523 87.819L149.531 82.949C148.38 83.378 147.513 83.7 146.776 83.974C146.701 84.002 146.627 84.03 146.555 84.056C144.742 84.731 143.657 85.134 140.731 86.222L145.19 95.753L134.537 98.197L122.979 90.295C121.427 90.469 120.301 90.595 119.341 90.703C118.724 90.772 118.175 90.834 117.627 90.895C116.226 91.053 114.825 91.21 112.274 91.496L108.59 101.109L96.868 101.176L92.744 91.608C90.181 91.351 88.774 91.21 87.366 91.069C85.959 90.928 84.551 90.787 81.988 90.53L70.797 98.563L60.034 96.242L64.052 86.663C61.92 85.908 60.749 85.493 59.578 85.078C58.407 84.663 57.236 84.248 55.104 83.492L38.341 88.557C36.133 87.36 35.251 86.881 34.369 86.403C33.487 85.925 32.605 85.446 30.397 84.249L36.132 80.282L41.866 76.315C40.531 75.19 39.799 74.573 39.066 73.955C38.335 73.339 37.603 72.723 36.271 71.601L16.836 72.821C15.559 70.931 15.222 70.432 14.672 69.619C14.325 69.105 13.893 68.466 13.086 67.271L28.749 62.723L30.021 62.354C29.718 61.056 29.552 60.344 29.385 59.632C29.219 58.919 29.052 58.207 28.749 56.909L10 54.074C10.303 52.453 10.424 51.806 10.545 51.158 M137.631 55.588C137.631 45.664 121.512 37.618 101.631 37.618C81.749 37.618 65.631 45.664 65.631 55.588C65.631 65.512 81.749 73.558 101.631 73.558C121.512 73.558 137.631 65.512 137.631 55.588"></path></g></g></g><g id="g-root-sy_5_cu_18ly8folftonj-fill" data-item-order="999827694" transform="translate(515.1087646484375, 169.9287109375)"><g id="sy_5_cu_18ly8folftonj-fill-merged" stroke="none" fill="#5d83c0" fill-opacity="1"><g><path d="M93.687 111.351L99.706 100.33 H99.853C103.805 99.732 104.982 99.561 109.003 98.974L125.966 106.646C129.985 105.36 130.337 105.248 133.062 104.377L135.2 103.694 V89.2L157.259 91.034C158.467 89.719 159.005 89.133 159.544 88.547C160.083 87.961 160.622 87.375 161.83 86.061 V70.502L166.665 69.466 V45.465L145.623 49.976C145.355 50.899 145.17 51.53 144.996 52.128C144.776 52.884 144.571 53.586 144.231 54.755L145.624 55.333L161.83 62.061C160.622 63.374 160.083 63.961 159.544 64.547C159.005 65.133 158.467 65.719 157.259 67.033L134.67 65.156L128.317 68.802L134.671 78.856L135.2 79.695L133.062 80.377C130.337 81.247 129.985 81.36 125.966 82.645L109.003 74.975C104.982 75.56 103.805 75.732 99.853 76.308C103.804 75.732 104.981 75.561 109.003 74.974L125.966 82.645C129.985 81.36 130.337 81.248 133.062 80.377L135.2 79.694L134.671 78.856L128.317 68.802L134.671 65.155L157.259 67.033C158.467 65.719 159.005 65.133 159.544 64.547C160.083 63.961 160.622 63.375 161.83 62.061L145.623 55.333L144.231 54.755C144.571 53.586 144.776 52.885 144.996 52.128C145.17 51.531 145.355 50.899 145.623 49.975L166.665 45.465L165.121 40.051L151.198 39.194L142.394 38.652C141.644 37.83 141.124 37.259 140.636 36.725C139.983 36.009 139.389 35.359 138.383 34.255L151.198 24.788L144.029 20.65L123.389 25.601C121.604 25.028 120.46 24.66 119.314 24.292C118.172 23.925 117.028 23.557 115.248 22.985L115.768 11.567C112.988 11.158 111.749 10.976 110.509 10.793C109.269 10.611 108.03 10.429 105.251 10.02L93.252 19.75 H83.566L71.626 10C67.155 10.652 66.664 10.723 63.759 11.147C63.048 11.25 62.193 11.375 61.099 11.534L61.551 22.953L53.396 25.559L32.784 20.583C32.045 21.008 31.465 21.341 30.982 21.618C28.983 22.765 28.653 22.954 25.591 24.712L38.349 34.195C37.735 34.863 37.273 35.366 36.859 35.817C36.08 36.664 35.466 37.332 34.313 38.586L25.591 39.112L11.577 39.958C11.16 41.388 10.974 42.026 10.788 42.664C10.603 43.302 10.417 43.94 10 45.37L31.015 49.907C31.314 50.954 31.506 51.625 31.698 52.298C31.889 52.97 32.081 53.642 32.38 54.688L31.015 55.252L14.737 61.973C15.926 63.276 16.462 63.864 16.993 64.445C16.997 64.451 17.002 64.456 17.007 64.461C17.012 64.466 17.016 64.471 17.02 64.476C17.551 65.058 18.087 65.646 19.278 66.95L41.877 65.099C44.072 66.366 45.022 66.915 46.698 67.882L48.208 68.754L41.877 78.671L41.26 79.637C44.532 80.689 45.369 80.958 47.042 81.496C47.06 81.501 47.077 81.507 47.095 81.513C47.903 81.773 48.911 82.097 50.476 82.6L67.484 74.95C69.516 75.248 70.821 75.44 72.125 75.632C73.431 75.825 74.737 76.017 76.773 76.316L82.725 87.344C86.605 87.346 87.605 87.347 89.588 87.348 H93.687L99.706 76.33L93.687 87.351 H82.725L76.773 76.316L72.125 75.632L67.485 74.949L50.476 82.6L47.095 81.512C45.369 80.957 44.533 80.689 41.26 79.637 V79.482L41.877 78.515 V78.671L48.208 68.753L46.698 67.882C45.023 66.914 44.072 66.366 41.877 65.099 V64.943L19.278 66.794 V66.95C18.088 65.645 17.552 65.057 17.021 64.475C16.462 63.863 15.926 63.275 14.737 61.972L31.015 55.252L32.38 54.688C32.081 53.641 31.89 52.969 31.698 52.297C31.506 51.625 31.314 50.953 31.016 49.906L10 45.371 V69.371L14.737 70.394 V84.162 H19.278L31.299 83.941L34.346 88.583 V89.56L41.26 88.994 V103.637C44.567 104.7 45.386 104.963 47.095 105.513L50.476 106.599L67.484 98.95L72.125 99.632L76.773 100.316L82.725 111.344 H93.687 M34.313 38.586C35.466 37.332 36.08 36.664 36.859 35.817L38.349 34.195L25.591 24.713 V39.113L34.313 38.586 M89.042 30.368C69.16 30.368 53.042 38.414 53.042 48.338C53.042 52.95 56.523 57.157 62.245 60.338C68.836 56.674 78.399 54.368 89.042 54.368C99.684 54.368 109.248 56.674 115.839 60.338C121.561 57.157 125.042 52.95 125.042 48.338C125.042 38.414 108.924 30.368 89.042 30.368 M151.198 24.789L138.383 34.256C139.389 35.359 139.983 36.01 140.636 36.726L142.394 38.652L151.198 39.194 V24.789 M89.042 30.368C69.16 30.368 53.042 38.413 53.042 48.338C53.042 52.95 56.523 57.156 62.245 60.338C68.836 64.002 78.399 66.308 89.042 66.308C99.684 66.308 109.248 64.002 115.839 60.338C121.561 57.156 125.042 52.95 125.042 48.338C125.042 38.413 108.924 30.368 89.042 30.368"></path></g></g></g><g id="g-root-sy_1_cu_mfh6wklfton4-fill" data-item-order="999827698" transform="translate(47.4407958984375, 192.900390625)"><g id="sy_1_cu_mfh6wklfton4-fill-merged" stroke="none" fill="#98bfff" fill-opacity="1"><g><path d="M124.366 45.787L135.841 49.694L142 47.597 V35.597L124.366 41.6L142 35.597L140.811 33.778C140.297 32.993 139.986 32.517 138.972 30.967L117.604 31.261C116.238 30.326 115.449 29.787 114.49 29.131L112.651 27.874L119.816 17.866L111.89 15.005L94.951 21.483L92.67 21.115C90.774 20.809 89.467 20.598 86.938 20.19L80.898 10 H71.102L65.062 20.19L62.772 20.559C60.88 20.865 59.574 21.076 57.049 21.483L40.11 15.005L32.184 17.866L39.349 27.874C37.965 28.821 37.173 29.362 36.196 30.03L34.396 31.261L13.028 30.967L11.923 32.656C11.356 33.523 11.068 33.964 10 35.597L27.634 41.6L10 35.597 V47.597L16.159 49.694L27.634 45.787L10 51.791L11.103 53.477C11.671 54.346 11.958 54.785 13.028 56.42L34.396 56.127C35.782 57.075 36.574 57.617 37.553 58.286L39.349 59.514L32.184 69.521L40.11 72.383L57.049 65.904L59.291 66.266C61.209 66.576 62.516 66.787 65.062 67.198L71.102 77.387L65.062 67.198C62.516 66.787 61.209 66.576 59.291 66.267L57.049 65.905L40.11 72.383L32.184 69.522 V81.522L40.11 84.383L57.049 77.904L59.461 78.294C61.287 78.589 62.591 78.799 65.062 79.198L71.102 89.388 H80.898L86.938 79.198L89.164 78.839C91.09 78.528 92.398 78.317 94.951 77.905L111.89 84.383L117.669 82.297 V70.939L119.816 70.475 V69.522C117.756 70.266 116.805 70.609 115.853 70.953C114.902 71.296 113.95 71.64 111.89 72.383L94.951 65.904C92.398 66.317 91.09 66.528 89.164 66.839L86.938 67.198L80.898 77.388L86.938 67.198L89.164 66.839C91.09 66.527 92.398 66.316 94.951 65.904L111.89 72.383L119.816 69.521L112.651 59.514C114.029 58.571 114.82 58.03 115.791 57.366L117.604 56.127L122.394 56.193 V54.305L126.949 49.357L137.311 50.194L124.366 45.787 M13.028 56.421C11.958 54.786 11.671 54.347 11.103 53.478L10 51.791 V63.791L11.1 65.474C11.67 66.345 11.957 66.783 13.028 68.421L33.17 68.144L34.396 66.431L39.349 59.514L37.553 58.286C36.574 57.617 35.782 57.075 34.396 56.127L13.028 56.421 M117.604 56.127L115.792 57.366C114.82 58.031 114.029 58.572 112.651 59.514L117.762 66.652L117.604 56.127 M34.396 31.261L36.196 30.03C37.173 29.362 37.965 28.821 39.349 27.874L32.184 17.866 V29.866L33.17 31.244 H34.396 M119.816 17.866L112.651 27.874L114.467 29.115C115.448 29.786 116.237 30.326 117.604 31.261 H118.83L119.816 29.866 V17.866 M117.604 56.127L117.762 66.652L118.83 68.144 H122.422 V56.193L117.604 56.127 M76 25.724C95.882 25.724 112 33.769 112 43.694C112 45.798 111.276 47.817 109.944 49.694C106.687 45.103 99.798 41.369 91 39.354C86.434 38.307 81.353 37.724 76 37.724C71.605 37.724 67.394 38.117 63.5 38.837C53.514 40.683 45.615 44.676 42.056 49.694C40.724 47.817 40 45.798 40 43.694C40 33.769 56.118 25.724 76 25.724 M112 43.694C112 33.769 95.882 25.724 76 25.724C56.118 25.724 40 33.769 40 43.694C40 45.798 40.724 47.817 42.056 49.694C47.003 56.668 60.333 61.664 76 61.664C91.667 61.664 104.997 56.668 109.944 49.694C111.276 47.817 112 45.798 112 43.694"></path></g></g></g><g id="g-root-sy_4_cu_1hiu6uslftq0x-fill" data-item-order="999827702" transform="translate(407.4407958984375, 222.900390625)"><g id="sy_4_cu_1hiu6uslftq0x-fill-merged" stroke="none" fill="#5287dd" fill-opacity="1"><g><path d="M94.951 77.904L111.89 84.383L115.853 82.953L119.816 81.522 V69.522L115.853 70.953L111.89 72.383L94.951 65.904C92.398 66.317 91.09 66.528 89.164 66.839L86.938 67.198L80.898 77.387L86.938 67.198L89.164 66.839C91.09 66.527 92.398 66.316 94.951 65.904L111.89 72.383C113.95 71.639 114.902 71.296 115.853 70.952C116.805 70.609 117.756 70.265 119.816 69.521L112.651 59.514C114.029 58.571 114.82 58.03 115.791 57.366C116.307 57.013 116.873 56.627 117.604 56.127L138.972 56.42C139.511 55.597 139.851 55.076 140.129 54.652C140.662 53.836 140.965 53.373 142 51.791L124.366 45.787L135.841 49.694L142 47.597 V35.597L138.972 36.628L124.366 41.6L142 35.597C141.461 34.773 141.121 34.253 140.843 33.828C140.31 33.012 140.007 32.55 138.972 30.967L117.604 31.261C116.237 30.326 115.448 29.786 114.487 29.129C114.48 29.124 114.474 29.12 114.467 29.115C113.951 28.762 113.384 28.375 112.651 27.874L119.816 17.866C117.756 17.122 116.805 16.779 115.853 16.435C114.902 16.092 113.95 15.748 111.89 15.005L94.951 21.483C91.537 20.932 90.35 20.741 86.938 20.19L80.898 10 H71.102L65.062 20.19L62.772 20.559C60.88 20.865 59.574 21.076 57.049 21.483L40.11 15.005C38.05 15.748 37.098 16.092 36.147 16.435C35.195 16.779 34.244 17.122 32.184 17.866L39.349 27.874C37.965 28.821 37.173 29.362 36.196 30.03C35.684 30.38 35.121 30.765 34.396 31.261L13.028 30.967C12.522 31.74 12.192 32.246 11.923 32.656C11.356 33.523 11.068 33.964 10 35.597L27.634 41.6L10 35.597 V47.597L16.159 49.694L27.634 45.787L10 51.791C10.503 52.559 10.833 53.064 11.1 53.473C11.671 54.346 11.958 54.785 13.028 56.42L34.396 56.127C35.782 57.075 36.574 57.617 37.553 58.286C38.064 58.635 38.625 59.019 39.349 59.514L32.184 69.521C34.244 70.265 35.195 70.609 36.147 70.952C37.098 71.296 38.05 71.639 40.11 72.383L57.049 65.904C57.916 66.044 58.639 66.161 59.291 66.266C61.209 66.576 62.516 66.787 65.062 67.198L71.102 77.387L65.062 67.198C62.516 66.787 61.209 66.576 59.291 66.267L57.049 65.905L40.11 72.383L36.147 70.953L32.184 69.522 V81.522L36.147 82.953L40.11 84.383L57.049 77.904L59.291 78.267 H59.461C61.287 78.589 62.591 78.799 65.062 79.198L71.102 89.387 H80.898L86.938 79.198L89.164 78.839C91.09 78.528 92.398 78.317 94.951 77.905 M13.028 56.421C11.958 54.786 11.671 54.347 11.103 53.478L10 51.791 V63.791L11.1 65.474C11.67 66.345 11.957 66.783 13.028 68.421L33.17 68.144L34.396 66.431L39.349 59.514L37.553 58.286C36.574 57.617 35.782 57.075 34.396 56.127L13.028 56.42 M138.972 56.42L117.604 56.127L117.762 66.652L118.83 68.144L138.972 68.42L140.129 66.652C140.662 65.836 140.965 65.374 142 63.791 V51.791C140.965 53.374 140.662 53.836 140.129 54.652L138.972 56.421 M117.604 56.127L115.792 57.366C114.82 58.031 114.029 58.572 112.651 59.514L117.762 66.652L117.604 56.127 M34.396 31.261L36.196 30.03C37.173 29.362 37.965 28.821 39.349 27.874L32.184 17.866 V29.866L33.17 31.244 H34.396 M119.816 17.866L112.651 27.874L114.467 29.115C115.448 29.786 116.237 30.326 117.604 31.261 H118.83L119.816 29.866 V17.866 M76 25.724C95.882 25.724 112 33.769 112 43.694C112 45.798 111.276 47.817 109.944 49.694C106.687 45.102 99.798 41.369 91 39.353C86.434 38.307 81.353 37.724 76 37.724C71.605 37.724 67.394 38.117 63.5 38.837C53.514 40.683 45.615 44.676 42.056 49.694C40.724 47.817 40 45.798 40 43.694C40 33.769 56.118 25.724 76 25.724 M40 43.694C40 45.798 40.724 47.817 42.056 49.694C47.003 56.668 60.333 61.664 76 61.664C91.667 61.664 104.997 56.668 109.944 49.694C111.276 47.817 112 45.798 112 43.694C112 33.769 95.882 25.724 76 25.724C56.118 25.724 40 33.769 40 43.694"></path></g></g></g><g id="g-root-sy_2_cu_4g30aclfv3t6-fill" data-item-order="999827706" transform="translate(155.1087646484375, 211.859375)"><g id="sy_2_cu_4g30aclfv3t6-fill-merged" stroke="none" fill="#619dff" fill-opacity="1"><g><path d="M93.252 101.601L105.251 111.33L110.509 110.557L115.768 109.783 V98.198L119.314 97.059C120.46 96.69 121.605 96.323 123.389 95.749L144.029 100.7L151.198 96.563 V82.157L165.121 81.299L166.665 75.886 V51.886L165.121 57.3L160.275 57.598L142.394 58.699L140.637 60.625C139.983 61.341 139.389 61.992 138.383 63.095L144.535 67.64L151.198 72.562L144.029 76.7L123.389 71.749C121.651 72.308 120.52 72.671 119.404 73.03 H119.314C118.172 73.426 117.028 73.793 115.249 74.365L115.735 85.07L115.248 74.365C117.028 73.793 118.172 73.426 119.314 73.059C119.334 73.052 119.355 73.046 119.375 73.039C119.384 73.036 119.394 73.033 119.403 73.03C120.52 72.671 121.651 72.308 123.389 71.749L144.029 76.7L151.198 72.563L144.535 67.64L138.383 63.095C139.389 61.992 139.983 61.341 140.636 60.625C141.124 60.091 141.644 59.521 142.394 58.699L160.275 57.598L165.121 57.3L166.665 51.886L161.83 50.849L145.623 47.375C145.355 46.451 145.17 45.82 144.996 45.222C144.776 44.466 144.571 43.764 144.231 42.595L161.83 35.29C160.622 33.976 160.083 33.39 159.544 32.804C159.005 32.218 158.467 31.632 157.259 30.317L135.2 32.151 V17.656L128.317 28.548L134.671 32.195L128.317 28.549L135.2 17.656L133.062 16.973C130.337 16.103 129.985 15.99 125.966 14.705L109.003 22.376C104.981 21.79 103.804 21.618 99.853 21.042 H99.706L93.687 10 H89.588C87.605 10.003 86.609 10.004 82.725 10.007L76.773 21.034C74.737 21.334 73.431 21.526 72.125 21.718C70.821 21.91 69.516 22.102 67.484 22.401L50.476 14.751C48.911 15.254 47.903 15.578 47.095 15.838C45.386 16.387 44.566 16.65 41.26 17.713L48.208 28.597L46.698 29.468C45.022 30.436 44.072 30.985 41.877 32.251C44.072 30.984 45.023 30.436 46.699 29.468L48.208 28.597L41.26 17.713 V32.2L19.278 30.4C18.078 31.715 17.543 32.302 17.007 32.889C16.472 33.476 15.937 34.062 14.737 35.377L19.278 37.252L32.38 42.662C32.081 43.709 31.889 44.381 31.698 45.053C31.696 45.057 31.695 45.062 31.694 45.067C31.503 45.734 31.312 46.404 31.015 47.444L19.278 49.977L14.737 50.957L10 51.98C10.417 53.409 10.602 54.047 10.788 54.684C10.974 55.324 11.16 55.962 11.577 57.392L14.737 57.583L34.313 58.764C35.464 60.016 36.078 60.685 36.855 61.529C37.273 61.985 37.735 62.487 38.349 63.155L32.043 67.842L25.635 72.605C28.653 74.396 28.983 74.585 30.982 75.733C31.465 76.01 32.045 76.343 32.784 76.767L53.396 71.791L61.551 74.398L61.156 84.379 V85.816C62.193 85.975 63.048 86.1 63.759 86.204C63.777 86.206 63.796 86.209 63.814 86.212C66.671 86.628 67.184 86.703 71.626 87.35L83.566 77.607 H93.252L105.251 87.33C108.03 86.922 109.269 86.739 110.509 86.557C111.749 86.375 112.988 86.192 115.768 85.783L110.509 86.557L105.251 87.33L93.252 77.601 H83.566L71.626 87.35C67.184 86.703 66.671 86.628 63.814 86.212L61.099 85.816 V84.379L61.551 74.398L53.396 71.791L32.785 76.767L30.982 75.733C28.983 74.585 28.653 74.396 25.591 72.638L32.043 67.842L38.35 63.155L36.859 61.533C36.079 60.684 35.465 60.016 34.313 58.764L14.738 57.583L11.577 57.392C11.16 55.962 10.974 55.324 10.788 54.686C10.602 54.047 10.417 53.409 10 51.98 V75.98C10.417 77.41 10.603 78.048 10.788 78.686C10.975 79.327 11.161 79.966 11.577 81.392L25.591 82.238 V96.638C28.653 98.396 28.983 98.585 30.982 99.733L32.784 100.767L53.396 95.791L61.099 98.253 V109.816L63.759 110.204C66.671 110.628 67.184 110.703 71.626 111.35L83.567 101.607 H93.252 M144.996 45.222C145.171 45.82 145.355 46.451 145.624 47.375L161.83 50.849 V35.29L144.231 42.595C144.571 43.764 144.776 44.466 144.996 45.222 M31.698 45.053C31.89 44.381 32.082 43.709 32.38 42.662L19.278 37.252L14.738 35.377 V50.957L19.278 49.977L31.016 47.444C31.312 46.404 31.503 45.734 31.694 45.066 M89.042 31.043C69.16 31.043 53.042 39.088 53.042 49.013C53.042 53.625 56.523 57.831 62.245 61.013C68.836 57.348 78.4 55.043 89.042 55.043C99.684 55.043 109.248 57.348 115.839 61.013C121.561 57.831 125.042 53.625 125.042 49.013C125.042 39.088 108.924 31.043 89.042 31.043 M89.042 66.983C78.399 66.983 68.835 64.677 62.245 61.013C56.523 57.831 53.042 53.625 53.042 49.013C53.042 39.088 69.16 31.043 89.042 31.043C108.924 31.043 125.042 39.088 125.042 49.013C125.042 53.625 121.561 57.831 115.839 61.013C109.248 64.677 99.684 66.983 89.042 66.983"></path></g></g></g><g id="g-root-sy_0_line_9i5wlfv4lf-fill" data-item-order="999827713" transform="translate(233.4407958984375, 320)"></g><g id="g-root-sy_0_line_1_1q5qjw4lfv570-fill" data-item-order="999827717" transform="translate(473.4407958984375, 314)"></g><g id="g-root-sy_0_line_2_1lqjiuslfv2th-fill" data-item-order="999827721" transform="translate(113.4407958984375, 98)"></g><g id="g-root-sy_0_line_3_1cuwilwlfv3m6-fill" data-item-order="999827725" transform="translate(353.4407958984375, 98)"></g><g id="g-root-sy_0_line_4_18f30hglfv4ef-fill" data-item-order="999827729" transform="translate(593.4407958984375, 98)"></g><g id="g-root-tx_inputche_1hdue5wlfv40c-fill" data-item-order="1000000000" transform="translate(29.4407958984375, 38)"><g id="tx_inputche_1hdue5wlfv40c-fill-merged" stroke="none" fill="#5080cd" fill-opacity="1"><g><text style="font: 20px Roboto, sans-serif; white-space: pre;" transform="translate(94, 34)" font-size="20px" font-family="Roboto, sans-serif"><tspan x="-80.1" y="0" dominant-baseline="ideographic">Input Checklist or </tspan><tspan x="-28.37" y="24" dominant-baseline="ideographic">Script</tspan></text></g></g></g><g id="g-root-tx_aivoicem_zlbfhwlfv47e-fill" data-item-order="1000000000" transform="translate(275.4407958984375, 62)"><g id="tx_aivoicem_zlbfhwlfv47e-fill-merged" stroke="none" fill="#5080cd" fill-opacity="1"><g><text style="font: 20px Roboto, sans-serif; white-space: pre;" transform="translate(88, 22)" font-size="20px" font-family="Roboto, sans-serif"><tspan x="-71.99" y="12" dominant-baseline="ideographic">AI Voice Models</tspan></text></g></g></g><g id="g-root-tx_blendaud_qofh2slfv3ls-fill" data-item-order="1000000000" transform="translate(533.4407958984375, 38)"><g id="tx_blendaud_qofh2slfv3ls-fill-merged" stroke="none" fill="#5080cd" fill-opacity="1"><g><text style="font: 20px Roboto, sans-serif; white-space: pre;" transform="translate(70, 34)" font-size="20px" font-family="Roboto, sans-serif"><tspan x="-55.85" y="0" dominant-baseline="ideographic">Blend Audio </tspan><tspan x="-43.93" y="24" dominant-baseline="ideographic">Elements</tspan></text></g></g></g><g id="g-root-tx_generate_8z0vuclfv47f-fill" data-item-order="1000000000" transform="translate(149.4407958984375, 386)"><g id="tx_generate_8z0vuclfv47f-fill-merged" stroke="none" fill="#5080cd" fill-opacity="1"><g><text style="font: 20px Roboto, sans-serif; white-space: pre;" transform="translate(94, 34)" font-size="20px" font-family="Roboto, sans-serif"><tspan x="-77.54" y="0" dominant-baseline="ideographic">Generate Natural </tspan><tspan x="-35.38" y="24" dominant-baseline="ideographic">Speech</tspan></text></g></g></g><g id="g-root-tx_contexta_1q7lz5glfv47d-fill" data-item-order="1000000000" transform="translate(401.4407958984375, 386)"><g id="tx_contexta_1q7lz5glfv47d-fill-merged" stroke="none" fill="#5080cd" fill-opacity="1"><g><text style="font: 20px Roboto, sans-serif; white-space: pre;" transform="translate(82, 34)" font-size="20px" font-family="Roboto, sans-serif"><tspan x="-67.71" y="0" dominant-baseline="ideographic">Context-Aware </tspan><tspan x="-62.71" y="24" dominant-baseline="ideographic">Soundscapes</tspan></text></g></g></g><g id="g-root-sy_3_cu_92rqd0lfto1y-stroke" data-item-order="999827690" transform="translate(261.8079833984375, 139.0361328125)"><g id="sy_3_cu_92rqd0lfto1y-stroke" fill="none" stroke-linecap="round" stroke-linejoin="round" stroke-miterlimit="4" stroke="#2c2c2c" stroke-width="1" stroke-opacity="1"><g><path d="M 41.866135 76.315236C 40.531035 75.189936 39.798835 74.572936 39.065736 73.955236C 38.334536 73.339136 37.602636 72.722436 36.271235 71.600236L 36.131436 80.282136L 41.866135 76.315236ZM 30.021235 62.353536L 29.384836 59.631336L 28.748536 56.909136L 28.748536 62.723036L 30.021235 62.353536ZM 174.650436 56.069336L 174.140136 58.798136C 174.006636 59.512236 173.873136 60.226336 173.629836 61.526836L 174.650436 61.807636L 174.650436 56.069336ZM 146.775436 119.974036L 149.530736 118.949136L 149.530736 82.949136L 146.775436 83.974036L 146.554536 84.056136C 144.742036 84.730336 143.656736 85.134036 140.730336 86.222136L 145.189836 95.752536L 145.189836 120.563736L 146.775436 119.974036ZM 117.626436 126.895036L 117.638736 126.893636C 119.035236 126.736836 120.435136 126.579736 122.978636 126.294436L 122.978636 90.294336C 121.426736 90.468436 120.300636 90.594836 119.341235 90.702536L 117.626436 90.895036C 116.225836 91.052336 114.825236 91.209536 112.274136 91.495736L 112.274136 127.495736C 114.825236 127.209536 116.225836 127.052336 117.626436 126.895036ZM 87.365935 127.068336L 92.744335 127.607336L 92.744335 91.607336L 87.365935 91.068336L 81.987535 90.529436L 81.987535 126.529436L 87.365935 127.068336ZM 55.103536 119.492136L 59.577936 121.077536L 60.033336 121.238836L 60.033336 96.241936L 64.052336 86.662936L 59.577936 85.077536L 55.103536 83.492136L 55.103536 119.492136ZM 165.118936 73.234536C 165.823135 72.608736 166.526735 71.983436 167.809036 70.843336L 167.809036 79.164636L 162.433736 75.621336C 163.713036 74.484036 164.416336 73.858936 165.118936 73.234536ZM 149.530736 118.949136C 148.379436 119.377336 147.513135 119.699536 146.775436 119.974036C 146.192336 120.190836 145.689636 120.377836 145.189836 120.563736M 117.626436 126.895036C 117.630536 126.894636 117.634636 126.894136 117.638736 126.893636M 92.744335 127.607336C 90.180836 127.350436 88.773436 127.209436 87.365935 127.068336C 85.958535 126.927336 84.551036 126.786236 81.987535 126.529436M 55.103536 119.492136C 57.235935 120.247736 58.406935 120.662636 59.577936 121.077536C 59.729036 121.131036 59.880135 121.184636 60.033336 121.238836M 174.650436 56.069336C 174.407135 57.369836 174.273636 58.083936 174.140136 58.798136M 149.530736 82.949136C 148.379436 83.377336 147.513135 83.699536 146.775436 83.974036C 146.700536 84.001836 146.626936 84.029236 146.554536 84.056136M 117.626436 90.895036C 118.174936 90.833436 118.723536 90.771836 119.341235 90.702536M 92.744335 91.607336C 90.180836 91.350436 88.773436 91.209436 87.365935 91.068336C 85.958535 90.927336 84.551036 90.786236 81.987535 90.529436M 64.052336 86.662936C 61.919936 85.907336 60.748936 85.492436 59.577936 85.077536C 58.406935 84.662636 57.235935 84.247736 55.103536 83.492136M 30.021235 62.353536C 29.718035 61.056136 29.551436 60.343736 29.384836 59.631336C 29.218336 58.918836 29.051736 58.206436 28.748536 56.909136M 190.78885 100.811147L 190.78885 66.248047C 189.81855 67.801247 189.430349 68.422147 189.042449 69.042647C 188.65425 69.663747 188.26635 70.284347 187.295149 71.838947L 187.295149 99.436147L 190.78885 100.811147ZM 134.53645 134.196347L 145.18975 131.752447L 145.18975 95.752447L 134.53645 98.196347L 134.53645 134.196347ZM 96.86815 137.175747L 108.589549 137.108347L 108.589549 101.108347L 96.86815 101.175747L 96.86815 137.175747ZM 60.033349 132.241847L 70.79645 134.562247L 70.79645 98.562247L 60.033349 96.241847L 60.033349 132.241847ZM 38.341149 104.153147L 38.341149 88.556247L 34.368949 86.402547L 30.39675 84.248947L 30.39675 104.815547L 38.341149 104.153147ZM 171.85815 84.788447L 174.26605 83.421047L 174.26605 115.045947L 166.52255 114.937847L 166.52255 87.818747C 169.752349 85.984147 170.07115 85.803147 171.84895 84.793647L 171.85815 84.788447ZM 14.672149 69.618747C 15.221349 70.431447 15.558749 70.930647 16.836149 72.820247L 16.836149 88.617647L 13.085449 90.328647L 13.085449 67.271047L 14.672149 69.618747ZM 171.85815 84.788447C 171.85505 84.790147 171.85195 84.791847 171.84895 84.793647M 38.341149 88.556247C 36.133249 87.359247 35.25105 86.880947 34.368949 86.402547C 33.486749 85.924247 32.604649 85.445947 30.39675 84.248947M 14.672149 69.618747C 14.32485 69.104947 13.89305 68.465847 13.085449 67.271047M 193.2633 53.018435L 174.650601 56.068935L 174.650601 61.807235L 190.789001 66.247635L 190.789001 89.423935L 193.2633 89.018435L 193.2633 53.018435ZM 183.394901 34.612335L 168.874801 41.181435C 169.711401 42.418935 170.1706 43.098435 170.629801 43.777935C 171.0889 44.457535 171.5481 45.137035 172.384701 46.374535L 183.394901 46.840535L 183.394901 34.612335ZM 159.3969 19.802735L 151.479901 28.754535L 155.197001 30.770135L 158.914001 32.785635L 159.3969 19.802735ZM 43.403501 33.449635L 50.650501 29.334335L 42.323 20.476035L 42.323 33.275835L 43.403501 33.449635ZM 33.019701 43.259335L 33.026901 43.247935L 33.833301 41.957535L 19.013801 35.557435L 19.013801 47.813035L 30.564201 47.190035C 31.7983 45.213635 32.150801 44.649735 33.019701 43.259335ZM 28.7487 56.908635L 10 54.073335L 10 90.073335L 12.7308 90.486235L 13.0857 90.320735L 13.0857 67.270635L 28.7487 62.722635L 28.7487 56.908635ZM 36.271401 71.599835L 16.836401 72.819835L 16.836401 88.629835L 19.280001 87.507835L 28.5075 90.489135L 28.5075 104.984335L 30.397 104.808835L 30.397 84.248535L 36.1316 80.281635L 36.271401 71.599835ZM 149.5309 118.948735L 155.625401 120.695335L 155.625401 119.475135L 158.6602 114.831035L 166.5228 114.940435L 166.5228 87.818335L 149.5309 82.948735L 149.5309 118.948735ZM 122.9788 126.293935L 134.536701 134.195935L 134.536701 98.195935L 122.9788 90.293935L 122.9788 126.293935ZM 108.5897 137.107935L 112.2743 127.495335L 112.2743 91.495335L 108.5897 101.107935L 108.5897 137.107935ZM 92.744501 127.606935L 96.868401 137.175335L 96.868401 101.175335L 92.744501 91.606935L 92.744501 127.606935ZM 70.796601 134.561835L 81.987701 126.529035L 81.987701 90.529035L 70.796601 98.561835L 70.796601 134.561835ZM 167.8092 70.842935L 187.295301 71.838535L 187.295301 99.463835L 185.742201 98.870135L 177.8203 101.730435L 177.8203 107.354435L 174.266301 107.172835L 174.266301 83.420635L 167.8092 79.164235L 167.8092 70.842935ZM 101.6328 37.647935C 81.750901 37.647935 65.6328 45.693535 65.6328 55.617935C 65.6328 62.782535 74.032801 68.967835 86.184801 71.854035C 90.866101 70.742135 96.104101 70.119935 101.6332 70.119935C 107.1622 70.119935 112.4 70.742135 117.0812 71.853935C 129.233001 68.967735 137.6328 62.782435 137.6328 55.617935C 137.6328 45.693535 121.5148 37.647935 101.6328 37.647935ZM 38.341401 88.555835L 55.103701 83.491735L 55.103701 108.094635L 50.516701 103.149935L 38.341401 104.161735L 38.341401 88.555835ZM 55.103701 119.491735L 55.103701 108.094635M 33.026901 43.247935C 33.0245 43.251735 33.022101 43.255535 33.019701 43.259335M 151.479901 28.754535C 153.251701 29.715235 154.224301 30.242735 155.197001 30.770135C 156.169601 31.297535 157.142201 31.824935 158.914001 32.785635M 10.5453 51.1582C 10.6285 50.713 11.0893 48.2412 11.0893 48.2412L 30.564201 47.1907C 31.7983 45.2143 32.150801 44.6504 33.019701 43.26C 33.022101 43.2562 33.0245 43.2524 33.026901 43.2486L 33.833301 41.9583L 19.013801 35.5581L 20.8669 33.9104C 22.1321 32.7855 22.3982 32.5489 24.7571 30.4522L 43.403501 33.4503L 50.650501 29.3351L 42.323 20.4767C 44.0014 19.8527 45.032601 19.4693 45.8323 19.172C 47.523501 18.5432 48.178401 18.2997 51.727301 16.9799L 66.3209 23.5085C 68.696701 22.9636 70.0012 22.6644 71.305701 22.3651C 72.610201 22.0659 73.914801 21.7666 76.290501 21.2217L 75.8937 11.4364C 79.0732 11.0798 80.343301 10.9373 81.6135 10.7948C 82.883401 10.6522 84.1534 10.5096 87.3318 10.1527L 95.3486 19.0827C 97.9917 19.0676 99.429801 19.0593 100.880901 19.051C 102.300901 19.0428 103.733201 19.0346 106.318801 19.0198L 113.9226 10C 118.77 10.4852 119.201201 10.5285 121.916001 10.8006C 122.779801 10.8872 123.8748 10.9969 125.416901 11.1515L 125.4718 20.9387C 127.872501 21.4561 129.190401 21.7403 130.508401 22.0244C 131.826301 22.3085 133.144201 22.5927 135.5449 23.1101L 149.8341 16.4157C 152.4917 17.3571 153.5536 17.7331 154.615401 18.1093C 155.677301 18.4855 156.739101 18.8617 159.3969 19.8034L 151.479901 28.7553C 153.251701 29.716 154.224301 30.2434 155.197001 30.7708C 156.169601 31.2982 157.142201 31.8257 158.914001 32.7864L 177.416901 29.5745C 179.079201 30.9755 179.742801 31.5348 180.407 32.0947C 181.0705 32.6539 181.734501 33.2136 183.394901 34.613L 168.874801 41.1821C 169.711401 42.4196 170.1706 43.0991 170.629801 43.7787C 171.0889 44.4582 171.5481 45.1378 172.384701 46.3753L 191.903301 47.2013C 192.2814 48.8182 192.432301 49.4642 192.583301 50.1102C 192.7343 50.7563 192.885301 51.4023 193.2633 53.0192L 174.650601 56.0696C 174.4073 57.3701 174.273801 58.0842 174.140301 58.7984C 174.006801 59.5125 173.873301 60.2266 173.630001 61.5271L 190.789001 66.2484C 189.8187 67.8016 189.430601 68.4225 189.0427 69.043C 188.6545 69.664 188.266501 70.2847 187.295301 71.8393L 167.8092 70.8437C 166.526901 71.9837 165.823301 72.609 165.119101 73.2349C 164.4165 73.8593 163.713201 74.4843 162.433901 75.6216L 174.266301 83.4213L 171.8583 84.7887C 170.072401 85.8028 169.758201 85.9813 166.5228 87.819L 149.5309 82.9494C 148.3796 83.3776 147.5133 83.6999 146.775601 83.9743C 146.7007 84.0021 146.6271 84.0295 146.554701 84.0564C 144.742201 84.7306 143.656901 85.1343 140.730501 86.2224L 145.190001 95.7528L 134.536701 98.1966L 122.9788 90.2947C 121.4269 90.4687 120.3008 90.5951 119.341401 90.7028C 118.723701 90.7722 118.1751 90.8337 117.626601 90.8953C 116.226001 91.0526 114.825401 91.2099 112.2743 91.496L 108.5897 101.1087L 96.868401 101.176L 92.744501 91.6076C 90.181 91.3508 88.7736 91.2097 87.366101 91.0687C 85.958701 90.9276 84.551201 90.7866 81.987701 90.5297L 70.796601 98.5626L 60.033501 96.2422L 64.052501 86.6632C 61.9201 85.9076 60.749101 85.4927 59.578101 85.0778C 58.407101 84.6629 57.236101 84.248 55.103701 83.4924L 38.341401 88.5565C 36.133501 87.3596 35.251301 86.8812 34.3692 86.4029C 33.487001 85.9246 32.6049 85.4462 30.397 84.2493L 41.866301 76.3155C 40.531201 75.1902 39.799 74.5732 39.065901 73.9555C 38.334701 73.3394 37.602801 72.7227 36.271401 71.6005L 16.836401 72.8205C 15.559001 70.931 15.221601 70.4317 14.672301 69.619C 14.325101 69.1052 13.8932 68.4662 13.0857 67.2714L 30.021401 62.3538C 29.718201 61.0564 29.551601 60.344 29.385 59.6316C 29.218501 58.9191 29.0519 58.2067 28.7487 56.9094L 10 54.074C 10.303201 52.4534 10.4242 51.8058 10.5453 51.1582ZM 137.6305 55.5879C 137.6305 45.6635 121.5125 37.6179 101.6305 37.6179C 81.748601 37.6179 65.6305 45.6635 65.6305 55.5879C 65.6305 65.5123 81.748601 73.5579 101.6305 73.5579C 121.5125 73.5579 137.6305 65.5123 137.6305 55.5879ZM 33.026901 43.2486L 33.019701 43.26M 151.479901 28.7553L 155.197001 30.7708L 158.914001 32.7864M 174.650601 56.0696L 174.140301 58.7984M 149.5309 82.9494L 146.775601 83.9743L 146.554701 84.0564M 117.626601 90.8953L 119.341401 90.7028M 92.744501 91.6076L 87.366101 91.0687L 81.987701 90.5297M 64.052501 86.6632L 59.578101 85.0778L 55.103701 83.4924M 38.341401 88.5565L 34.3692 86.4029L 30.397 84.2493M 14.672301 69.619L 13.0857 67.2714M 30.021401 62.3538L 29.385 59.6316L 28.7487 56.9094"></path></g></g></g><g id="g-root-sy_5_cu_18ly8folftonj-stroke" data-item-order="999827694" transform="translate(515.1087646484375, 169.9287109375)"><g id="sy_5_cu_18ly8folftonj-stroke" fill="none" stroke-linecap="round" stroke-linejoin="round" stroke-miterlimit="4" stroke="#2c2c2c" stroke-width="1" stroke-opacity="1"><g><path d="M 19.278104 84.102251L 19.278104 66.949951C 18.087604 65.645151 17.551504 65.05735 17.020504 64.475251L 17.007504 64.460951L 16.992604 64.444651C 16.462404 63.863451 15.926104 63.27545 14.737304 61.97245L 14.737304 84.16155L 19.278104 84.102251ZM 48.207904 68.75325L 46.698404 67.881751C 45.022504 66.91425 44.072104 66.36555 41.877004 65.098951L 41.877004 78.670751L 48.207904 68.75325ZM 47.094804 105.51255L 50.475904 106.59945L 50.475904 82.59925L 47.094804 81.512351L 47.042304 81.495451C 45.368904 80.957451 44.532604 80.688651 41.260104 79.63705L 41.260104 103.637251C 44.566604 104.699751 45.386004 104.96315 47.094804 105.51255ZM 72.124804 99.632151L 76.773004 100.315851L 76.773004 76.315651L 72.124804 75.631951L 67.484504 74.94935L 67.484504 98.94955L 72.124804 99.632151ZM 99.853104 100.307951C 103.804504 99.73215 104.981604 99.560651 109.003204 98.973951L 109.003204 74.973751C 104.981604 75.560451 103.804504 75.73195 99.853104 76.307751L 99.705804 76.329251L 99.705804 100.329451L 99.853104 100.307951ZM 32.379904 54.68805C 32.081404 53.64115 31.889504 52.969151 31.697704 52.29715C 31.505904 51.625151 31.314004 50.953051 31.015504 49.906251L 31.015504 55.251351L 32.379904 54.68805ZM 93.687004 111.35015L 93.687004 87.350051L 82.724704 87.343251L 82.724704 111.343451L 93.687004 111.35015ZM 133.062404 104.376951L 135.200004 103.693951L 135.200004 79.693751L 133.062404 80.376751C 130.337004 81.247451 129.985604 81.359751 125.966004 82.644651L 125.966004 106.644851C 129.985604 105.359951 130.337004 105.247651 133.062404 104.376951ZM 134.670904 65.154851L 128.317404 68.801651L 134.670904 78.856351L 134.670904 65.154851ZM 159.544604 88.54675C 160.083404 87.96065 160.622204 87.37465 161.830004 86.060651L 161.830004 62.060451C 160.622204 63.374451 160.083404 63.960551 159.544604 64.546551C 159.005804 65.13255 158.467004 65.718651 157.259204 67.03265L 157.259204 91.032851C 158.467004 89.71885 159.005804 89.13275 159.544604 88.54675ZM 145.623804 49.975251C 145.354904 50.898751 145.170704 51.53045 144.996504 52.127951C 144.776004 52.884251 144.571504 53.58585 144.231204 54.755151L 145.623804 55.333251L 145.623804 49.975251ZM 76.773004 100.315851C 74.737404 100.016451 73.431504 99.82435 72.124804 99.632151C 70.820804 99.44025 69.516004 99.248351 67.484504 98.94955M 50.475904 106.59945C 48.911204 106.096451 47.903404 105.77245 47.094804 105.51255M 76.773004 76.315651C 74.737404 76.016251 73.431504 75.82415 72.124804 75.631951C 70.820804 75.44005 69.516004 75.248151 67.484504 74.94935M 50.475904 82.59925C 48.911204 82.096251 47.903404 81.772351 47.094804 81.512351C 47.077204 81.50665 47.059704 81.501051 47.042304 81.495451M 17.020504 64.475251C 17.016204 64.470551 17.011804 64.465751 17.007504 64.460951C 17.002504 64.455551 16.997604 64.450151 16.992604 64.444651M 34.3129 38.58639C 35.4661 37.332491 36.0802 36.664191 36.8586 35.817291L 38.3492 34.195491L 25.5911 24.712891L 25.5911 39.112791L 34.3129 38.58639ZM 31.0154 49.90709L 10 45.37089L 10 69.37109L 14.7371 70.393591L 14.7371 61.973291L 31.0154 55.25219L 31.0154 49.90709ZM 41.8768 64.94349L 19.2779 66.79449L 19.2779 84.10549L 31.2992 83.94129L 34.346 88.58259L 34.346 89.560491L 41.26 88.994191L 41.26 79.48159L 41.8768 78.51529L 41.8768 64.94349ZM 50.4758 106.600291L 67.4843 98.950291L 67.4843 74.950191L 50.4758 82.600091L 50.4758 106.600291ZM 76.7729 100.316691L 82.7246 111.344291L 82.7246 87.344091L 76.7729 76.31649L 76.7729 100.316691ZM 93.6868 111.350991L 99.7057 100.330191L 99.7057 76.329991L 93.6868 87.350791L 93.6868 111.350991ZM 89.0417 30.36809C 69.1598 30.36809 53.0417 38.41369 53.0417 48.338091C 53.0417 52.950191 56.5227 57.15659 62.2448 60.33819C 68.8355 56.67359 78.3994 54.368291 89.0417 54.368291C 99.6841 54.368291 109.248 56.67359 115.8387 60.33819C 121.5607 57.15659 125.0417 52.950191 125.0417 48.338091C 125.0417 38.41369 108.9237 30.36809 89.0417 30.36809ZM 109.0029 98.975191L 125.9655 106.645891L 125.9655 82.645691L 109.0029 74.97499L 109.0029 98.975191ZM 157.2588 67.03369L 134.6704 65.155891L 134.6704 78.857391L 135.1996 79.694791L 135.1996 89.199991L 157.2588 91.03389L 157.2588 67.03369ZM 166.6651 45.46549L 145.6234 49.976291L 145.6234 55.334291L 161.8295 62.06149L 161.8295 70.502291L 166.6651 69.465691L 166.6651 45.46549ZM 151.1979 24.78859L 138.3829 34.25629C 139.389 35.35929 139.9825 36.009791 140.6363 36.72619L 142.3936 38.65229L 151.1979 39.194391L 151.1979 24.78859ZM 82.7207 111.34459L 82.7246 111.344291M 99.853 100.30879L 99.7057 100.330191M 82.7207 87.34439L 82.7246 87.344091M 36.8586 35.817291C 37.2734 35.365991 37.7348 34.863991 38.3492 34.195491M 99.853 76.30859L 99.7057 76.329991M 140.6363 36.72619C 141.1234 37.26009 141.644 37.830591 142.3936 38.65229M 89.5875 87.348001C 87.6049 87.3468 86.6055 87.3463 82.7207 87.343901L 82.7246 87.3436L 76.7729 76.316C 74.7373 76.0166 73.4313 75.824501 72.1247 75.6323C 70.8206 75.440401 69.5159 75.2485 67.4843 74.949701L 50.4758 82.5997C 48.911 82.096701 47.9032 81.7727 47.0946 81.512701C 47.077 81.5071 47.0595 81.5014 47.0421 81.4958C 45.3687 80.957801 44.5324 80.689001 41.26 79.637401L 48.2078 68.753601L 46.6983 67.8821C 45.0224 66.914601 44.0719 66.365901 41.8768 65.099301L 19.2779 66.9503C 18.0875 65.6455 17.5513 65.057701 17.0204 64.475701C 17.016 64.470901 17.0117 64.4661 17.0073 64.4613C 17.0024 64.4559 16.9974 64.4505 16.9925 64.445C 16.4623 63.8638 15.926 63.275801 14.7371 61.9729L 32.3798 54.688401C 32.0812 53.641501 31.8894 52.9695 31.6976 52.297501C 31.5057 51.6255 31.3139 50.953501 31.0154 49.906601L 10 45.3705C 10.417 43.940101 10.6027 43.302201 10.7884 42.664301C 10.9741 42.026401 11.1598 41.3884 11.5768 39.958101L 34.3129 38.586001C 35.4661 37.332101 36.0802 36.6638 36.8586 35.8169C 37.2734 35.3655 37.7348 34.8635 38.3492 34.195L 25.5911 24.712401C 28.6535 22.954099 28.9827 22.7652 30.9823 21.617599C 31.465 21.3406 32.045 21.007701 32.7843 20.583399L 53.3955 25.559199L 61.5506 22.952801L 61.0994 11.5342C 62.1927 11.3749 63.048 11.250301 63.7587 11.146701C 66.6642 10.7234 67.1552 10.651901 71.6255 10L 83.5662 19.743601L 93.2515 19.749501L 105.2508 10.0202C 108.0296 10.4287 109.2693 10.611 110.509 10.7933C 111.7488 10.975601 112.9885 11.1581 115.7676 11.566901L 115.2484 22.985001C 117.0281 23.557201 118.1715 23.9246 119.3142 24.291801C 120.4597 24.6599 121.6045 25.027699 123.3886 25.601299L 144.0291 20.650301L 151.198 24.787699L 138.3831 34.255401C 139.3891 35.3585 139.9827 36.0089 140.6364 36.7254C 141.1235 37.2593 141.6441 37.8298 142.3937 38.651501L 165.1211 40.050701L 166.6653 45.464601L 145.6235 49.9754C 145.3545 50.898901 145.1704 51.5306 144.9962 52.1282C 144.7757 52.884501 144.5712 53.586001 144.2309 54.7553L 161.8297 62.060601C 160.6219 63.374701 160.0831 63.9607 159.5443 64.5467C 159.0055 65.1328 158.4666 65.7188 157.2589 67.0329L 134.6705 65.155001L 128.317 68.8019L 135.1997 79.6939L 133.062 80.3769C 130.3366 81.247701 129.9853 81.360001 125.9656 82.644901L 109.0031 74.974101C 104.9814 75.560801 103.8043 75.732301 99.853 76.3081L 99.7057 76.329601L 93.6868 87.3504L 89.5875 87.348001ZM 89.0417 30.367701C 69.1598 30.367701 53.0417 38.4133 53.0417 48.3377C 53.0417 52.9498 56.5227 57.1561 62.2448 60.337801C 68.8355 64.002401 78.3994 66.307701 89.0417 66.307701C 99.6841 66.307701 109.248 64.002401 115.8387 60.337801C 121.5607 57.1561 125.0417 52.9498 125.0417 48.3377C 125.0417 38.4133 108.9237 30.367701 89.0417 30.367701ZM 89.5875 87.348001L 82.7246 87.3436M 76.7729 76.316L 72.1247 75.6323L 67.4843 74.949701M 50.4758 82.5997L 47.0946 81.512701L 47.0421 81.4958M 36.8586 35.8169L 38.3492 34.195M 140.6364 36.7254L 142.3937 38.651501M 17.0204 64.475701L 17.0073 64.4613L 16.9925 64.445"></path></g></g></g><g id="g-root-sy_1_cu_mfh6wklfton4-stroke" data-item-order="999827698" transform="translate(47.4407958984375, 192.900390625)"><g id="sy_1_cu_mfh6wklfton4-stroke" fill="none" stroke-linecap="round" stroke-linejoin="round" stroke-miterlimit="4" stroke="#2c2c2c" stroke-width="1" stroke-opacity="1"><g><path d="M 71.1021 89.387916L 80.8979 89.387916L 80.8979 77.387916L 71.1021 77.387916L 71.1021 89.387916ZM 59.4606 78.293916C 61.2875 78.588816 62.5915 78.799316 65.0617 79.198316L 65.0617 67.198316C 62.5159 66.787116 61.2087 66.576116 59.2912 66.266616L 57.0493 65.904616L 57.0493 77.904616L 59.4606 78.293916ZM 40.1097 84.383316L 40.1097 72.383316L 32.1839 69.521916L 32.1839 81.521916L 40.1097 84.383316ZM 39.3486 59.514116L 37.5528 58.286216C 36.5741 57.617016 35.7818 57.075316 34.3962 56.127216L 34.3962 66.431716L 39.3486 59.514116ZM 11.1003 65.473516C 11.6701 66.345116 11.9567 66.783316 13.0279 68.420816L 13.0279 56.420816C 11.9585 54.786016 11.6711 54.346516 11.103 53.477816L 10 51.791016L 10 63.791016L 11.1003 65.473516ZM 117.6039 56.127216L 115.7921 57.366116L 115.7911 57.366816C 114.8202 58.030616 114.029 58.571616 112.6515 59.514116L 117.7618 66.652416L 117.6039 56.127216ZM 89.1642 78.839016C 91.0905 78.528016 92.3978 78.316916 94.9507 77.904616L 94.9507 65.904616C 92.3978 66.316916 91.0905 66.528016 89.1642 66.839016L 86.9383 67.198316L 86.9383 79.198316L 89.1642 78.839016ZM 111.8903 84.383316L 117.6688 82.297116L 117.6688 70.939416L 119.8161 70.474616L 119.8161 69.521916C 117.7561 70.265516 116.8046 70.609116 115.8532 70.952616C 114.9018 71.296116 113.9503 71.639716 111.8903 72.383316L 111.8903 84.383316ZM 65.0617 79.198011L 71.1021 89.387611L 71.1021 77.387611L 65.0617 67.198011L 65.0617 79.198011ZM 40.1097 84.383011L 57.0493 77.904311L 57.0493 65.904311L 40.1097 72.383011L 40.1097 84.383011ZM 34.3962 56.126911L 13.0279 56.420511L 13.0279 68.420511L 33.1703 68.143811L 34.3962 66.431411L 34.3962 56.126911ZM 27.6337 45.787411L 27.6337 41.600411L 10 35.597111L 10 47.597111L 16.159 49.693911L 27.6337 45.787411ZM 34.3962 31.260811L 36.1957 30.030411C 37.1726 29.362411 37.9647 28.820811 39.3486 27.874011L 32.1839 17.866211L 32.1839 29.866211L 33.1703 31.244011L 34.3962 31.260811ZM 124.3663 41.600411L 124.3663 45.787411L 135.841 49.693911L 142 47.597111L 142 35.597111L 124.3663 41.600411ZM 119.8161 17.866211L 112.6515 27.874011L 114.4669 29.115311L 114.4871 29.129211C 115.4476 29.785911 116.2371 30.325711 117.6039 31.260811L 118.8297 31.244011L 119.8161 29.866211L 119.8161 17.866211ZM 94.9507 77.904311L 111.8903 84.383011L 111.8903 72.383011L 94.9507 65.904311L 94.9507 77.904311ZM 80.8979 89.387611L 86.9383 79.198011L 86.9383 67.198011L 80.8979 77.387611L 80.8979 89.387611ZM 117.6039 56.126911L 117.7618 66.652111L 118.8297 68.143811L 122.4223 68.193111L 122.4223 56.193111L 117.6039 56.126911ZM 34.3962 31.260811C 35.1212 30.765011 35.6838 30.380311 36.1957 30.030411M 112.6515 27.874011C 113.384 28.375011 113.9507 28.762511 114.4669 29.115311C 114.4736 29.120011 114.4804 29.124611 114.4871 29.129211M 76 25.723755C 95.8819 25.723755 112 33.769355 112 43.693755C 112 45.797755 111.2756 47.817355 109.9444 49.693755C 106.6872 45.102555 99.7976 41.369155 91 39.353555C 86.4336 38.307355 81.3532 37.724055 76 37.724055C 71.6049 37.724055 67.3938 38.117255 63.5 38.836955C 53.5139 40.682755 45.6154 44.676055 42.0556 49.693755C 40.7245 47.817355 40 45.797755 40 43.693755C 40 33.769355 56.1181 25.723755 76 25.723755ZM 124.3663 45.7873L 124.3663 41.6002L 142 35.5969L 140.8107 33.7781C 140.297 32.9926 139.9861 32.5171 138.9722 30.9671L 117.6039 31.2607C 116.2384 30.3264 115.4491 29.7867 114.4898 29.1309L 114.4871 29.129L 112.6515 27.8738L 119.8161 17.866L 111.8903 15.0046L 94.9507 21.4833L 92.6703 21.1152C 90.7737 20.809 89.4671 20.598 86.9383 20.1896L 80.8979 10L 71.1021 10L 65.0617 20.1896L 62.7718 20.5593C 60.8803 20.8646 59.5738 21.0756 57.0493 21.4833L 40.1097 15.0046L 32.1839 17.866L 39.3486 27.8738C 37.9647 28.8207 37.1726 29.3622 36.1957 30.0302L 34.3962 31.2607L 13.0279 30.9671L 11.9233 32.6563C 11.3563 33.5234 11.0684 33.9636 10 35.5969L 27.6337 41.6002L 27.6337 45.7873L 10 51.7905L 11.103 53.4773C 11.6711 54.346 11.9585 54.7855 13.0279 56.4204L 34.3962 56.1268C 35.7818 57.0748 36.5741 57.6166 37.5528 58.2857L 39.3486 59.5136L 32.1839 69.5214L 40.1097 72.3829L 57.0493 65.9042L 59.2912 66.2661C 61.2087 66.5757 62.5159 66.7867 65.0617 67.1978L 71.1021 77.3875L 80.8979 77.3875L 86.9383 67.1978L 89.1642 66.8385C 91.0905 66.5275 92.3978 66.3165 94.9507 65.9042L 111.8903 72.3829L 119.8161 69.5214L 112.6515 59.5136C 114.029 58.5711 114.8202 58.0302 115.7911 57.3664L 115.7921 57.3657L 117.6039 56.1268L 122.3944 56.1926L 122.3944 54.3049L 126.9492 49.3574L 137.311 50.1942L 124.3663 45.7873ZM 112 43.6937C 112 33.7693 95.8819 25.7237 76 25.7237C 56.1181 25.7237 40 33.7693 40 43.6937C 40 45.7978 40.7245 47.8174 42.0556 49.6937C 47.0034 56.6679 60.3332 61.6637 76 61.6637C 91.6668 61.6637 104.9966 56.6679 109.9444 49.6937C 111.2756 47.8174 112 45.7978 112 43.6937Z"></path></g></g></g><g id="g-root-sy_4_cu_1hiu6uslftq0x-stroke" data-item-order="999827702" transform="translate(407.4407958984375, 222.900390625)"><g id="sy_4_cu_1hiu6uslftq0x-stroke" fill="none" stroke-linecap="round" stroke-linejoin="round" stroke-miterlimit="4" stroke="#2c2c2c" stroke-width="1" stroke-opacity="1"><g><path d="M 71.1021 89.387916L 80.8979 89.387916L 80.8979 77.387916L 71.1021 77.387916L 71.1021 89.387916ZM 59.2912 78.266616L 59.4606 78.293916C 61.2875 78.588816 62.5915 78.799316 65.0617 79.198316L 65.0617 67.198316C 62.5159 66.787116 61.2087 66.576116 59.2912 66.266616L 57.0493 65.904616L 57.0493 77.904616L 59.2912 78.266616ZM 36.1468 82.952616L 40.1097 84.383316L 40.1097 72.383316L 36.1468 70.952616L 32.1839 69.521916L 32.1839 81.521916L 36.1468 82.952616ZM 39.3486 59.514116L 37.5528 58.286216C 36.5741 57.617016 35.7818 57.075316 34.3962 56.127216L 34.3962 66.431716L 39.3486 59.514116ZM 11.1003 65.473516C 11.6701 66.345116 11.9567 66.783316 13.0279 68.420816L 13.0279 56.420816C 11.9585 54.786016 11.6711 54.346516 11.103 53.477816L 11.1003 53.473516L 10 51.791016L 10 63.791016L 11.1003 65.473516ZM 140.1286 66.652416C 140.6623 65.836216 140.9646 65.373916 142 63.791016L 142 51.791016C 140.9646 53.373916 140.6623 53.836216 140.1286 54.652416L 138.9722 56.420816L 138.9722 68.420816L 140.1286 66.652416ZM 117.6039 56.127216L 115.7921 57.366116L 115.7911 57.366816C 114.8202 58.030616 114.029 58.571616 112.6515 59.514116L 117.7618 66.652416L 117.6039 56.127216ZM 115.8532 82.952616L 119.8161 81.521916L 119.8161 69.521916L 115.8532 70.952616L 111.8903 72.383316L 111.8903 84.383316L 115.8532 82.952616ZM 89.1642 78.839016C 91.0905 78.528016 92.3978 78.316916 94.9507 77.904616L 94.9507 65.904616C 92.3978 66.316916 91.0905 66.528016 89.1642 66.839016L 86.9383 67.198316L 86.9383 79.198316L 89.1642 78.839016ZM 140.1286 66.652416C 139.8509 67.077016 139.5107 67.597316 138.9722 68.420816M 119.8161 81.521916C 117.7561 82.265516 116.8046 82.609116 115.8532 82.952616C 114.9018 83.296116 113.9503 83.639716 111.8903 84.383316M 57.0493 77.904616C 57.9158 78.044516 58.6388 78.161216 59.2912 78.266616C 59.3482 78.275816 59.4046 78.284916 59.4606 78.293916M 40.1097 84.383316C 38.0497 83.639716 37.0982 83.296116 36.1468 82.952616C 35.1954 82.609116 34.2439 82.265516 32.1839 81.521916M 11.1003 65.473516C 10.8328 65.064416 10.5028 64.559916 10 63.791016M 140.1286 54.652416C 139.8509 55.077016 139.5107 55.597316 138.9722 56.420816M 117.6039 56.127216C 116.873 56.627016 116.3072 57.013916 115.7921 57.366116M 119.8161 69.521916C 117.7561 70.265516 116.8046 70.609116 115.8532 70.952616C 114.9018 71.296116 113.9503 71.639716 111.8903 72.383316M 59.2912 66.266616C 58.6388 66.161216 57.9158 66.044516 57.0493 65.904616M 40.1097 72.383316C 38.0497 71.639716 37.0982 71.296116 36.1468 70.952616C 35.1954 70.609116 34.2439 70.265516 32.1839 69.521916M 39.3486 59.514116C 38.6253 59.019516 38.0636 58.635516 37.5528 58.286216M 11.1003 53.473516C 10.8328 53.064416 10.5028 52.559916 10 51.791016M 65.0617 79.197859L 71.1021 89.387459L 71.1021 77.387459L 65.0617 67.197859L 65.0617 79.197859ZM 40.1097 84.382859L 57.0493 77.904159L 57.0493 65.904159L 40.1097 72.382859L 40.1097 84.382859ZM 34.3962 56.126759L 13.0279 56.420359L 13.0279 68.420359L 33.1703 68.143659L 34.3962 66.431259L 34.3962 56.126759ZM 27.6337 45.787259L 27.6337 41.600259L 10 35.596959L 10 47.596959L 16.159 49.693759L 27.6337 45.787259ZM 34.3962 31.260659L 36.1957 30.030259C 37.1726 29.362259 37.9647 28.820659 39.3486 27.873859L 32.1839 17.866059L 32.1839 29.866059L 33.1703 31.243859L 34.3962 31.260659ZM 124.3663 41.600259L 124.3663 45.787259L 135.841 49.693759L 142 47.596959L 142 35.596959L 124.3663 41.600259ZM 119.8161 17.866059L 112.6515 27.873859L 114.4669 29.115159L 114.4871 29.129059C 115.4476 29.785759 116.2371 30.325559 117.6039 31.260659L 118.8297 31.243859L 119.8161 29.866059L 119.8161 17.866059ZM 138.9722 56.420359L 117.6039 56.126759L 117.7618 66.651959L 118.8297 68.143659L 138.9722 68.420359L 138.9722 56.420359ZM 94.9507 77.904159L 111.8903 84.382859L 111.8903 72.382859L 94.9507 65.904159L 94.9507 77.904159ZM 80.8979 89.387459L 86.9383 79.197859L 86.9383 67.197859L 80.8979 77.387459L 80.8979 89.387459ZM 34.3962 31.260659C 35.1212 30.764859 35.6838 30.380159 36.1957 30.030259M 112.6515 27.873859C 113.384 28.374859 113.9507 28.762359 114.4669 29.115159C 114.4736 29.119859 114.4804 29.124459 114.4871 29.129059M 76 25.723633C 95.8819 25.723633 112 33.769233 112 43.693633C 112 45.797633 111.2756 47.817233 109.9444 49.693633C 106.6872 45.102433 99.7976 41.369033 91 39.353433C 86.4336 38.307233 81.3532 37.723933 76 37.723933C 71.6049 37.723933 67.3938 38.117133 63.5 38.836833C 53.5139 40.682633 45.6154 44.675933 42.0556 49.693633C 40.7245 47.817233 40 45.797633 40 43.693633C 40 33.769233 56.1181 25.723633 76 25.723633ZM 142 35.5969L 124.3663 41.6002L 124.3663 45.7873L 142 51.7905C 140.9646 53.3734 140.6623 53.8357 140.1286 54.652C 139.8509 55.0765 139.5107 55.5968 138.9722 56.4204L 117.6039 56.1268C 116.873 56.6266 116.3072 57.0134 115.7921 57.3657L 115.7911 57.3664C 114.8202 58.0302 114.029 58.5711 112.6515 59.5136L 119.8161 69.5214C 117.7561 70.2651 116.8046 70.6086 115.8532 70.9521C 114.9018 71.2957 113.9503 71.6392 111.8903 72.3829L 94.9507 65.9042C 92.3978 66.3165 91.0905 66.5275 89.1642 66.8385L 86.9383 67.1978L 80.8979 77.3875L 71.1021 77.3875L 65.0617 67.1978C 62.5159 66.7867 61.2087 66.5757 59.2912 66.2661C 58.6388 66.1608 57.9158 66.0441 57.0493 65.9042L 40.1097 72.3829C 38.0497 71.6392 37.0982 71.2957 36.1468 70.9521C 35.1954 70.6086 34.2439 70.2651 32.1839 69.5214L 39.3486 59.5136C 38.6253 59.019 38.0636 58.635 37.5528 58.2857C 36.5741 57.6166 35.7818 57.0748 34.3962 56.1268L 13.0279 56.4204C 11.9585 54.7855 11.6711 54.346 11.103 53.4773L 11.1003 53.4731C 10.8328 53.064 10.5028 52.5594 10 51.7905L 27.6337 45.7873L 27.6337 41.6002L 10 35.5969C 11.0684 33.9636 11.3563 33.5234 11.9233 32.6563C 12.1916 32.246 12.5223 31.7402 13.0279 30.9671L 34.3962 31.2607C 35.1212 30.7649 35.6838 30.3802 36.1957 30.0302C 37.1726 29.3622 37.9647 28.8207 39.3486 27.8738L 32.1839 17.866C 34.2439 17.1224 35.1954 16.7789 36.1468 16.4353C 37.0982 16.0918 38.0497 15.7482 40.1097 15.0046L 57.0493 21.4833C 59.5738 21.0756 60.8803 20.8646 62.7718 20.5593L 65.0617 20.1896L 71.1021 10L 80.8979 10L 86.9383 20.1896C 90.3503 20.7407 91.5374 20.9322 94.9507 21.4833L 111.8903 15.0046C 113.9503 15.7482 114.9018 16.0918 115.8532 16.4353C 116.8046 16.7789 117.7561 17.1224 119.8161 17.866L 112.6515 27.8738C 113.384 28.3748 113.9507 28.7623 114.4669 29.1152C 114.4736 29.1198 114.4804 29.1244 114.4871 29.129C 115.4476 29.7857 116.2371 30.3256 117.6039 31.2607L 138.9722 30.9671C 140.0073 32.5496 140.3097 33.0121 140.8432 33.8279C 141.1209 34.2526 141.4612 34.773 142 35.5969ZM 40 43.6937C 40 45.7978 40.7245 47.8174 42.0556 49.6937C 47.0034 56.6679 60.3332 61.6637 76 61.6637C 91.6668 61.6637 104.9966 56.6679 109.9444 49.6937C 111.2756 47.8174 112 45.7978 112 43.6937C 112 33.7693 95.8819 25.7237 76 25.7237C 56.1181 25.7237 40 33.7693 40 43.6937Z"></path></g></g></g><g id="g-root-sy_2_cu_4g30aclfv3t6-stroke" data-item-order="999827706" transform="translate(155.1087646484375, 211.859375)"><g id="sy_2_cu_4g30aclfv3t6-stroke" fill="none" stroke-linecap="round" stroke-linejoin="round" stroke-miterlimit="4" stroke="#2c2c2c" stroke-width="1" stroke-opacity="1"><g><path d="M 25.5911 96.637942C 28.6535 98.396242 28.9827 98.585142 30.9823 99.732742L 32.7843 100.766942L 32.7843 76.766942L 30.9823 75.732742C 28.9827 74.585142 28.6535 74.396242 25.5911 72.637942L 25.5911 96.637942ZM 105.2508 111.330142L 110.509 110.557042L 115.7676 109.783442L 115.7676 85.783442L 110.509 86.557042L 105.2508 87.330142L 105.2508 111.330142ZM 144.0291 100.700042L 151.198 96.562642L 151.198 72.562642L 144.0291 76.700042L 144.0291 100.700042ZM 165.1211 81.299642L 166.6653 75.885742L 166.6653 51.885742L 165.1211 57.299642L 165.1211 81.299642ZM 10 75.979842C 10.417 77.410242 10.6027 78.048142 10.7884 78.686042L 10.7899 78.691042C 10.9751 79.327342 11.1609 79.965642 11.5768 81.392242L 11.5768 57.392242C 11.1598 55.961942 10.9741 55.323942 10.7884 54.686042L 10.7878 54.684142C 10.6023 54.046842 10.4166 53.408742 10 51.979842L 10 75.979842ZM 61.0994 109.816142L 63.7587 110.203642L 63.8145 110.211742C 66.6707 110.627942 67.1839 110.702642 71.6255 111.350342L 71.6255 87.350342C 67.1839 86.702642 66.6707 86.627942 63.8145 86.211742L 63.7587 86.203642L 61.0994 85.816142L 61.0994 109.816142ZM 30.9823 99.732742C 31.465 100.009742 32.045 100.342642 32.7843 100.766942M 61.0994 109.816142C 62.1927 109.975442 63.048 110.100042 63.7587 110.203642C 63.7774 110.206342 63.796 110.209042 63.8145 110.211742M 105.2508 111.330142C 108.0296 110.921642 109.2693 110.739342 110.509 110.557042C 111.7488 110.374742 112.9885 110.192342 115.7676 109.783442M 25.5911 72.637942L 25.6353 72.605042M 30.9823 75.732742C 31.465 76.009742 32.045 76.342642 32.7843 76.766942M 61.0994 85.816142C 62.1927 85.975442 63.048 86.100042 63.7587 86.203642C 63.7774 86.206342 63.796 86.209042 63.8145 86.211742M 105.2508 87.330142C 108.0296 86.921642 109.2693 86.739342 110.509 86.557042C 111.7488 86.374742 112.9885 86.192342 115.7676 85.783442L 115.7352 85.070042M 53.395508 95.791123L 61.099408 98.253323L 61.099408 85.816023L 61.550708 74.397523L 53.395508 71.791123L 53.395508 95.791123ZM 83.566208 101.606723L 93.251508 101.600823L 93.251508 77.600823L 83.566208 77.606723L 83.566208 101.606723ZM 119.314208 97.058523C 120.459808 96.690423 121.604508 96.322623 123.388608 95.749023L 123.388608 71.749023C 121.650808 72.307723 120.519708 72.671223 119.403508 73.029823L 119.374708 73.039123L 119.314208 73.058523C 118.171608 73.425723 117.028108 73.793123 115.248508 74.365223L 115.767708 85.783323L 115.767708 98.198323L 119.314208 97.058523ZM 119.314208 97.058523C 118.286708 97.388723 117.258508 97.719123 115.767708 98.198323M 119.314208 73.058523C 119.334408 73.052023 119.354608 73.045523 119.374708 73.039123C 119.384308 73.036023 119.393908 73.032923 119.403508 73.029823M 48.208148 28.59665L 41.260348 17.71275L 41.260348 32.20035L 41.877148 32.25085C 44.072248 30.98435 45.022748 30.43555 46.698648 29.46805L 48.208148 28.59665ZM 144.996548 45.22205C 145.170748 45.81955 145.354848 46.45125 145.623848 47.37475L 161.830048 50.84895L 161.830048 35.28955L 144.231248 42.59485C 144.571548 43.76415 144.776048 44.46575 144.996548 45.22205ZM 128.317348 28.54835L 134.670848 32.19515L 135.200048 32.15115L 135.200048 17.65625L 128.317348 28.54835ZM 32.784648 100.76685L 53.395848 95.79105L 53.395848 71.79095L 32.784648 76.76685L 32.784648 100.76685ZM 36.858948 61.53335L 36.855248 61.52935C 36.078648 60.68425 35.464648 60.01615 34.313348 58.76425L 11.577148 57.39205L 11.577148 81.39205L 25.591448 82.23785L 25.591448 72.63775L 38.349548 63.15515L 36.858948 61.53335ZM 71.625848 111.35015L 83.566548 101.60665L 83.566548 77.60665L 71.625848 87.35015L 71.625848 111.35015ZM 93.251848 101.60075L 105.251148 111.32995L 105.251148 87.32995L 93.251848 77.60075L 93.251848 101.60075ZM 123.388948 95.74895L 144.029448 100.69985L 144.029448 76.69985L 123.388948 71.74895L 123.388948 95.74895ZM 140.636748 60.62485C 139.983048 61.34125 139.389448 61.99175 138.383448 63.09475L 151.198348 72.56245L 151.198348 82.15665L 165.121448 81.29945L 165.121448 57.29945L 142.394048 58.69875L 140.636748 60.62485ZM 31.697948 45.05265C 31.889748 44.38065 32.081548 43.70865 32.380148 42.66185L 14.737548 35.37735L 14.737548 50.95725L 31.015748 47.44355C 31.312248 46.40385 31.503448 45.73385 31.694048 45.06645L 31.697948 45.05265ZM 89.042048 31.04255C 69.160148 31.04255 53.042048 39.08815 53.042048 49.01255C 53.042048 53.62455 56.523048 57.83085 62.244948 61.01255C 68.835648 57.34775 78.399648 55.04255 89.042048 55.04255C 99.684448 55.04255 109.248448 57.34775 115.839248 61.01255C 121.561148 57.83085 125.042048 53.62455 125.042048 49.01255C 125.042048 39.08815 108.924048 31.04255 89.042048 31.04255ZM 31.697948 45.05265C 31.696648 45.05725 31.695348 45.06185 31.694048 45.06645M 36.858948 61.53335C 37.273748 61.98465 37.735148 62.48665 38.349548 63.15515M 140.636748 60.62485C 141.123848 60.09095 141.644448 59.52045 142.394048 58.69875M 89.5875 10.0024C 87.6049 10.0035 86.6093 10.0044 82.7246 10.0067L 76.7729 21.0343C 74.7373 21.3337 73.4313 21.5259 72.1247 21.7181C 70.8206 21.9099 69.5159 22.1019 67.4843 22.4007L 50.4758 14.7507C 48.911 15.2537 47.9032 15.5777 47.0946 15.8377C 45.3858 16.387 44.5664 16.6505 41.26 17.713L 48.2078 28.5968L 46.6983 29.4682C 45.0224 30.4358 44.0719 30.9845 41.8768 32.2511L 19.2779 30.4001C 18.0777 31.7155 17.5426 32.3022 17.0073 32.889C 16.4722 33.4757 15.9371 34.0624 14.7371 35.3775L 32.3798 42.662C 32.0812 43.7088 31.8894 44.3809 31.6976 45.0529C 31.6963 45.0575 31.695 45.062 31.6936 45.0666C 31.5031 45.7341 31.3119 46.404 31.0154 47.4438L 10 51.9799C 10.4166 53.4088 10.6023 54.0469 10.7878 54.6842L 10.7884 54.6861C 10.9741 55.324 11.1598 55.9619 11.5768 57.3922L 34.3129 58.7644C 35.4642 60.0163 36.0783 60.6845 36.8549 61.5295L 36.8586 61.5335C 37.2734 61.9848 37.7348 62.4869 38.3492 63.1553L 25.5911 72.6379C 28.6535 74.3962 28.9827 74.5852 30.9823 75.7328C 31.465 76.0098 32.045 76.3427 32.7843 76.767L 53.3955 71.7912L 61.5506 74.3976L 61.0994 85.8161C 62.1927 85.9754 63.048 86.1001 63.7587 86.2036C 63.7774 86.2064 63.796 86.2091 63.8145 86.2118C 66.6707 86.6279 67.1839 86.7027 71.6255 87.3504L 83.5662 77.6068L 93.2515 77.6009L 105.2508 87.3302C 108.0296 86.9216 109.2693 86.7394 110.509 86.5571C 111.7488 86.3747 112.9885 86.1923 115.7676 85.7834L 115.2484 74.3653C 117.0281 73.7932 118.1715 73.4258 119.3142 73.0586C 119.3344 73.0521 119.3545 73.0456 119.3747 73.0392C 119.3843 73.0361 119.3939 73.033 119.4035 73.0299C 120.5196 72.6713 121.6508 72.3078 123.3886 71.7491L 144.0291 76.7001L 151.198 72.5627L 138.3831 63.095C 139.3891 61.9919 139.9827 61.3414 140.6364 60.625C 141.1235 60.0911 141.6441 59.5206 142.3937 58.6989L 165.1211 57.2997L 166.6653 51.8858L 145.6235 47.3749C 145.3545 46.4514 145.1704 45.8197 144.9962 45.2222C 144.7757 44.4659 144.5712 43.7643 144.2309 42.595L 161.8297 35.2897C 160.6219 33.9757 160.0831 33.3897 159.5443 32.8036C 159.0055 32.2176 158.4666 31.6315 157.2589 30.3175L 134.6705 32.1954L 128.317 28.5485L 135.1997 17.6564L 133.062 16.9734C 130.3366 16.1027 129.9853 15.9904 125.9656 14.7055L 109.0031 22.3762C 104.9814 21.7896 103.8043 21.6181 99.853 21.0423L 99.7057 21.0208L 93.6868 10L 89.5875 10.0024ZM 89.0417 66.9827C 78.3993 66.9827 68.8353 64.6774 62.2446 61.0127C 56.5226 57.8311 53.0417 53.6248 53.0417 49.0127C 53.0417 39.0883 69.1598 31.0427 89.0417 31.0427C 108.9237 31.0427 125.0417 39.0883 125.0417 49.0127C 125.0417 53.6248 121.5608 57.8311 115.8389 61.0127C 109.2481 64.6774 99.6841 66.9827 89.0417 66.9827ZM 31.6976 45.0529L 31.6936 45.0666M 36.8586 61.5335L 38.3492 63.1553M 30.9823 75.7328L 32.7843 76.767M 61.0994 85.8161L 63.7587 86.2036L 63.8145 86.2118M 105.2508 87.3302L 110.509 86.5571L 115.7676 85.7834M 119.3142 73.0586L 119.3747 73.0392L 119.4035 73.0299M 151.198 72.5627L 151.198 72.57M 140.6364 60.625L 142.3937 58.6989"></path></g></g></g><g id="g-root-sy_0_line_9i5wlfv4lf-stroke" data-item-order="999827713" transform="translate(233.4407958984375, 320)"><g id="sy_0_line_9i5wlfv4lf-stroke" fill="none" stroke-linecap="round" stroke-linejoin="round" stroke-miterlimit="4" stroke="#4e88e6" stroke-width="1" stroke-opacity="1"><style>.fillAsStrokeColor-mk-v6r51wkc0we8 { fill:#4e88e6; }</style><g><path d="M 10 64L 10 12.83"></path><path d="M 10 11.4L 12.8 16.4L 7.2 16.4Z" stroke-dasharray="none" class="fillAsStrokeColor-mk-v6r51wkc0we8" fill="#4e88e6"></path></g></g></g><g id="g-root-sy_0_line_1_1q5qjw4lfv570-stroke" data-item-order="999827717" transform="translate(473.4407958984375, 314)"><g id="sy_0_line_1_1q5qjw4lfv570-stroke" fill="none" stroke-linecap="round" stroke-linejoin="round" stroke-miterlimit="4" stroke="#4e88e6" stroke-width="1" stroke-opacity="1"><style>.fillAsStrokeColor-mk-hvamokkc0xz5 { fill:#4e88e6; }</style><g><path d="M 10 70L 10 12.83"></path><path d="M 10 11.4L 12.8 16.4L 7.2 16.4Z" stroke-dasharray="none" class="fillAsStrokeColor-mk-hvamokkc0xz5" fill="#4e88e6"></path></g></g></g><g id="g-root-sy_0_line_2_1lqjiuslfv2th-stroke" data-item-order="999827721" transform="translate(113.4407958984375, 98)"><g id="sy_0_line_2_1lqjiuslfv2th-stroke" fill="none" stroke-linecap="round" stroke-linejoin="round" stroke-miterlimit="4" stroke="#4e88e6" stroke-width="1" stroke-opacity="1"><style>.fillAsStrokeColor-mk-4kgleckc0wea { fill:#4e88e6; }</style><g><path d="M 10 91.17L 10 10"></path><path d="M 10 92.6L 7.2 87.6L 12.8 87.6Z" stroke-dasharray="none" class="fillAsStrokeColor-mk-4kgleckc0wea" fill="#4e88e6"></path></g></g></g><g id="g-root-sy_0_line_3_1cuwilwlfv3m6-stroke" data-item-order="999827725" transform="translate(353.4407958984375, 98)"><g id="sy_0_line_3_1cuwilwlfv3m6-stroke" fill="none" stroke-linecap="round" stroke-linejoin="round" stroke-miterlimit="4" stroke="#4e88e6" stroke-width="1" stroke-opacity="1"><style>.fillAsStrokeColor-mk-1qa4504kc0xs3 { fill:#4e88e6; }</style><g><path d="M 10 43.17L 10 10"></path><path d="M 10 44.6L 7.2 39.6L 12.8 39.6Z" stroke-dasharray="none" class="fillAsStrokeColor-mk-1qa4504kc0xs3" fill="#4e88e6"></path></g></g></g><g id="g-root-sy_0_line_4_18f30hglfv4ef-stroke" data-item-order="999827729" transform="translate(593.4407958984375, 98)"><g id="sy_0_line_4_18f30hglfv4ef-stroke" fill="none" stroke-linecap="round" stroke-linejoin="round" stroke-miterlimit="4" stroke="#4e88e6" stroke-width="1" stroke-opacity="1"><style>.fillAsStrokeColor-mk-1cynmmskc0zd0 { fill:#4e88e6; }</style><g><path d="M 10 73.17L 10 10"></path><path d="M 10 74.6L 7.2 69.6L 12.8 69.6Z" stroke-dasharray="none" class="fillAsStrokeColor-mk-1cynmmskc0zd0" fill="#4e88e6"></path></g></g></g><g id="g-root-tx_inputche_1hdue5wlfv40c-stroke" data-item-order="1000000000" transform="translate(29.4407958984375, 38)"></g><g id="g-root-tx_aivoicem_zlbfhwlfv47e-stroke" data-item-order="1000000000" transform="translate(275.4407958984375, 62)"></g><g id="g-root-tx_blendaud_qofh2slfv3ls-stroke" data-item-order="1000000000" transform="translate(533.4407958984375, 38)"></g><g id="g-root-tx_generate_8z0vuclfv47f-stroke" data-item-order="1000000000" transform="translate(149.4407958984375, 386)"></g><g id="g-root-tx_contexta_1q7lz5glfv47d-stroke" data-item-order="1000000000" transform="translate(401.4407958984375, 386)"></g></g></g><path id="w1d0j1wki3x62s" d="M65.283 12.757a.35.35 0 0 0 .584.157l5.203-5.141-6.183 3.523.396 1.461zm-2.216-11.7a.35.35 0 0 0-.522.305v3.111l3.276-1.868-2.754-1.548zm3.728 2.105l-4.25 2.421v2.445l6.391-3.644-2.141-1.222zm4.708 3.303a.35.35 0 0 0 0-.609l-1.592-.9-7.365 4.199v1.782a.35.35 0 0 0 .523.305l8.435-4.777z M44.542 2.513c0-.433.355-.783.792-.783s.792.35.792.783-.355.783-.792.783-.792-.35-.792-.783zm59.171 0c0-.433.355-.783.792-.783s.792.35.792.783-.355.783-.792.783-.792-.35-.792-.783zm-85.951 7.636h-1.27v-.487c-.276.201-.864.609-1.881.609-1.202 0-2.274-.794-2.137-2.078.118-1.106 1.153-1.584 1.848-1.727l2.17-.345c0-.539-.29-.956-1.064-1.006s-1.21.305-1.571 1.017l-1.124-.605c1.218-2.631 5.029-1.764 5.029.414v4.207zm-1.27-2.86c.006.396-.062 1.112-.819 1.59-.587.37-1.841.299-1.903-.395-.049-.555.461-.791.906-.898l1.816-.297zm72.662 2.86h-1.27v-.487c-.276.201-.864.609-1.881.609-1.202 0-2.274-.794-2.137-2.078.118-1.106 1.153-1.584 1.848-1.727l2.17-.345c0-.539-.29-.956-1.064-1.006s-1.21.305-1.571 1.017l-1.124-.605c1.218-2.631 5.029-1.764 5.029.414v4.207zm-1.27-2.86c.006.396-.062 1.112-.82 1.59-.587.37-1.841.299-1.903-.395-.049-.555.461-.791.906-.898l1.816-.297zM99.096 10.149H97.85v-8.45h1.246v4.895l2.68-2.559h1.738l-2.633 2.535 2.715 3.578h-1.556l-2.077-2.707-.867.844v1.863zm6.053-6.114h-1.255v6.113h1.255V4.035zm-59.2 0h-1.255v6.113h1.255V4.035zm5.584 6.113V1.697h1.255v2.695c.361-.346 1-.485 1.47-.485 1.452 0 2.477 1.082 2.457 2.448v3.792h-1.27v-3.68c0-.408-.214-1.339-1.315-1.339-.968 0-1.342.756-1.342 1.339v3.681h-1.255zm-4.76-4.894V4.039h.621a.45.45 0 0 0 .45-.45v-.855h1.251v1.305h1.309v1.215h-1.309v3.109c0 .293.105.664.648.664.365 0 .531-.035.736-.07v1.137s-.361.113-.857.113c-1.398 0-1.777-1.051-1.777-1.788V5.254h-1.071zM36.528 4.039h-1.394l2.191 6.106h1.125l1.234-3.918 1.238 3.918h1.129l2.188-6.106h-1.383l-1.359 3.93-1.256-3.93h-1.124l-1.242 3.957-1.348-3.957zM26.212 7.141c-.02 1.566 1.187 3.129 3.223 3.129 1.566 0 2.383-.918 2.734-1.719L31.172 8c-.315.399-.801 1.094-1.738 1.094-1.145 0-1.825-.781-1.891-1.52h4.625c.074-.284.148-.995-.03-1.559-.336-1.064-1.221-2.102-2.839-2.102s-3.088 1.152-3.088 3.227zm1.363-.75h3.348c-.055-.43-.566-1.301-1.623-1.301a1.79 1.79 0 0 0-1.725 1.301zm-8.758.75c.038 1.758 1.277 3.133 3.145 3.133 1.074 0 1.723-.477 1.961-.672v.547h1.242V1.703h-1.258v2.888c-.414-.36-1.062-.68-1.93-.68-1.91 0-3.198 1.473-3.16 3.23zm1.309-.08c0 1.119.723 1.978 1.836 1.978a1.88 1.88 0 0 0 1.94-1.904c0-1.371-1.011-1.99-1.972-1.99s-1.805.798-1.805 1.916zm76.683-.028C96.771 5.275 95.532 3.9 93.664 3.9c-1.074 0-1.723.477-1.961.672v-.547h-1.242v8.22h1.258V9.583c.414.36 1.063.68 1.93.68 1.91 0 3.198-1.473 3.16-3.23zm-1.309.08c0-1.119-.723-1.978-1.836-1.978a1.88 1.88 0 0 0-1.94 1.904c0 1.371 1.011 1.99 1.972 1.99S95.5 8.231 95.5 7.113zM106.441 10.173V4.036h1.254v.382c.361-.346 1-.485 1.47-.485 1.452 0 2.477 1.082 2.457 2.448v3.792h-1.27V6.492c0-.408-.214-1.339-1.315-1.339-.969 0-1.342.756-1.342 1.339v3.681h-1.254zm-30.383-.021V1.824h1.084l4.215 5.777V1.824h1.32v8.328h-1.094l-4.207-5.796v5.796h-1.319zM5.24 10.149H4V2.377h1.014l2.664 3.597 2.654-3.592h1.03v7.766h-1.256V4.762L7.678 8.068 5.24 4.742v5.407z" transform="translate(592.39697265625, 506.70703125)" fill="#ababab88" stroke="none"></path></svg>