<svg xmlns="http://www.w3.org/2000/svg" xmlns:xlink="http://www.w3.org/1999/xlink" viewBox="0,0,255.99057,255.99057" width="100px" height="100px" fill-rule="nonzero"><g fill="#ffffff" fill-rule="nonzero" stroke="none" stroke-width="1" stroke-linecap="butt" stroke-linejoin="miter" stroke-miterlimit="10" stroke-dasharray="" stroke-dashoffset="0" font-family="none" font-weight="none" font-size="none" text-anchor="none" style="mix-blend-mode: normal"><g transform="scale(2.56,2.56)"><path d="M51.375,4.85742c-0.14865,0.00293 -0.29477,0.03896 -0.42773,0.10547c0,0 -0.18239,0.09845 -0.33594,0.2207c-0.15355,0.12225 -0.34406,0.30006 -0.5625,0.55469c-0.43688,0.50926 -0.98368,1.32375 -1.57031,2.63672c-1.17326,2.62593 -2.51445,7.24636 -3.40625,15.48828c-0.26766,2.47332 -0.41407,6.42965 -0.49609,10.91406l-4.56641,3.13672l-0.33984,-3c-0.05675,-0.50615 -0.48482,-0.88881 -0.99414,-0.88867h-4.82031c-0.51478,-0.0004 -0.94578,0.39003 -0.99609,0.90234l-0.84375,8.47852l-25.61719,17.59961c-0.21103,0.14479 -0.35852,0.36498 -0.41211,0.61523l-0.94141,4.40234c-0.07638,0.35554 0.04624,0.72452 0.32025,0.96361c0.274,0.23909 0.65619,0.31061 0.99811,0.18678l30.82422,-11.18945l7.4082,0.01172c0.06212,4.22833 0.14046,8.21075 0.22852,11.20703c0.05546,1.88712 0.1113,3.42427 0.16406,4.49023c0.02638,0.53298 0.05268,0.94549 0.07813,1.24023c0.01272,0.14737 0.02326,0.25992 0.04297,0.37891c0.0089,0.05387 0.01806,0.11142 0.05664,0.22461c0.01939,0.11647 0.56322,3.33469 1.37891,7.2207l-10.78516,10.12891c-0.20151,0.18875 -0.31602,0.45241 -0.31641,0.72852v3.49805c-0.00008,0.32664 0.15936,0.63274 0.42706,0.8199c0.2677,0.18716 0.60994,0.23179 0.91669,0.11955l12.61523,-4.60352c0.35904,0.9189 0.74336,1.70281 1.20703,2.28516c0.16892,0.21133 0.41624,0.34521 0.68555,0.37109c0.51006,0.04942 0.92782,-0.19396 1.19531,-0.43555c0.26749,-0.24159 0.45672,-0.51601 0.64063,-0.82812c0.2427,-0.4119 0.46481,-0.92276 0.68359,-1.47656l12.8418,4.6875c0.30675,0.11224 0.64899,0.0676 0.91669,-0.11955c0.2677,-0.18716 0.42714,-0.49326 0.42706,-0.8199v-3.49805c0.00002,-0.27193 -0.1107,-0.53215 -0.30664,-0.7207l-10.94141,-10.50781c-0.00643,-0.00594 -0.01294,-0.0118 -0.01953,-0.01758c0.7585,-3.6266 1.27539,-6.59961 1.27539,-6.59961c0.0088,-0.04838 0.01403,-0.09734 0.01563,-0.14648c0.14058,-5.92658 0.22664,-11.71581 0.2832,-17.42773l7.56055,-0.20508c5.86434,2.02349 18.71736,6.75098 30.80469,11.18164c0.34199,0.12542 0.72514,0.05498 1.00016,-0.18388c0.27502,-0.23886 0.39841,-0.60837 0.32211,-0.96456l-0.94141,-4.40234c-0.05185,-0.24222 -0.19174,-0.45658 -0.39258,-0.60156c-8.94019,-6.45296 -17.54905,-12.52281 -25.4668,-17.76758l-1.01562,-8.34766c-0.06123,-0.50154 -0.48692,-0.87863 -0.99219,-0.87891h-4.82227c-0.50858,0.00086 -0.93552,0.38326 -0.99219,0.88867l-0.34375,3.0293l-4.75781,-3.1582c-0.05714,-3.40571 -0.13463,-6.7575 -0.24805,-10.01953l0.00195,0.00586c0,0 -0.1236,-4.41166 -0.9043,-9.04492c-0.39036,-2.31667 -0.94112,-4.69182 -1.75977,-6.6582c-0.81864,-1.96638 -1.90786,-3.64858 -3.6875,-4.16992c-0.09634,-0.02851 -0.19642,-0.04233 -0.29687,-0.04102zM51.51367,7.13086c0.68151,0.41761 1.39969,1.26314 2,2.70508c0.71867,1.72625 1.25691,3.99179 1.63281,6.22266c0.7518,4.46174 0.87695,8.76953 0.87695,8.76953c-0.00001,0.00195 -0.00001,0.00391 0,0.00586c0.51708,14.8738 0.41096,31.37353 0.00195,48.6582c-0.00996,0.05744 -0.74038,4.21698 -1.73242,8.67187c-0.23059,-3.15252 -0.67919,-6.1654 -1.37109,-9.48828c-0.09218,-0.47804 -0.5152,-0.82025 -1.00195,-0.81055c-0.42471,0.01003 -0.79673,0.28729 -0.92773,0.69141l-1.95898,2.95313l-0.0957,-1.35352l0.05273,-52.91992c-0.13807,-4.18376 0.42593,-8.59556 1.25391,-11.89844c0.01975,-0.04525 0.04099,-0.10271 0.06055,-0.14648c0.50162,-1.1227 0.92245,-1.71647 1.20898,-2.06055zM58.30469,37.20703l4.87891,3.23828c0.00646,0.00463 0.01297,0.00919 0.01953,0.01367c0.00703,0.00443 0.01446,0.00924 0.02148,0.01367c0.04773,0.03709 0.09872,0.06977 0.15234,0.09766c9.50733,5.99921 20.38364,13.61316 31.80078,21.84961l0.48438,2.25781c-11.54815,-4.23448 -23.7521,-8.72444 -29.30859,-10.63867c-0.11372,-0.03866 -0.23347,-0.05653 -0.35352,-0.05273l-7.67773,0.20703c0.0459,-5.79585 0.05414,-11.49086 -0.01758,-16.98633zM44.5332,37.23242c-0.05786,4.91402 -0.04538,10.33941 0.01172,15.51563c0.00482,0.43665 0.01415,0.81625 0.01953,1.24805l-7.55078,-0.01172c-0.11725,-0.00012 -0.2336,0.02037 -0.34375,0.06055l-29.29297,10.63281l0.48242,-2.25l31.85938,-21.88672c0.01728,-0.01119 0.03422,-0.02292 0.05078,-0.03516l0.0332,-0.02148c0.00262,-0.00259 0.00522,-0.00519 0.00781,-0.00781zM51.43945,75.54492c0.81157,4.52223 1.13737,8.5872 1.01172,13.69141c-0.06302,0.19376 -0.12683,0.40765 -0.18945,0.58789c-0.2157,0.62084 -0.41098,1.00981 -0.60547,1.41797c-0.24236,-0.49461 -0.48678,-0.97802 -0.74023,-1.60742c-0.63851,-4.25289 -0.37821,-9.26207 0.52344,-14.08984zM56.23242,82.66016l9.76758,9.38086v1.64258l-11.52539,-4.20703c0.5403,-1.71995 1.06405,-3.75579 1.53906,-5.81641c0.07846,-0.34036 0.14317,-0.66117 0.21875,-1zM44.33594,85.57617v5.5918l-6.89258,2.51563v-1.63672z"></path></g></g></svg>